<svg xmlns="http://www.w3.org/2000/svg" xmlns:xlink="http://www.w3.org/1999/xlink" viewBox="0 0 2297.19 1548"><defs><style>.cls-1{isolation:isolate;}.cls-2{fill:#52601a;}.cls-3{fill:#657722;}.cls-4{fill:#7c8e30;}.cls-5{fill:url(#linear-gradient);}.cls-6{fill:#4c5914;}.cls-7{fill:#b2641d;}.cls-8{fill:url(#linear-gradient-2);}.cls-9{fill:url(#linear-gradient-3);}.cls-10{fill:url(#linear-gradient-4);}.cls-11{fill:url(#linear-gradient-5);}.cls-12{fill:url(#linear-gradient-6);}.cls-13{fill:url(#linear-gradient-7);}.cls-14{fill:url(#linear-gradient-8);}.cls-15{fill:url(#linear-gradient-9);}.cls-16{fill:#b5b1ac;}.cls-101,.cls-102,.cls-113,.cls-115,.cls-116,.cls-117,.cls-118,.cls-119,.cls-120,.cls-121,.cls-125,.cls-16,.cls-22,.cls-60,.cls-71,.cls-74{mix-blend-mode:multiply;}.cls-17{fill:url(#linear-gradient-10);}.cls-18{fill:url(#linear-gradient-11);}.cls-19{fill:url(#linear-gradient-12);}.cls-20{fill:url(#linear-gradient-13);}.cls-21{fill:url(#linear-gradient-14);}.cls-22{fill:#b7b7b7;}.cls-23{fill:url(#linear-gradient-15);}.cls-24{fill:url(#linear-gradient-16);}.cls-25{fill:url(#linear-gradient-17);}.cls-26{fill:url(#linear-gradient-18);}.cls-27{fill:url(#linear-gradient-19);}.cls-28{fill:url(#linear-gradient-20);}.cls-29{fill:url(#linear-gradient-21);}.cls-30{fill:url(#linear-gradient-22);}.cls-31{fill:url(#linear-gradient-23);}.cls-32{fill:url(#linear-gradient-24);}.cls-33{fill:url(#linear-gradient-25);}.cls-34{fill:url(#linear-gradient-26);}.cls-35{fill:url(#linear-gradient-27);}.cls-36{fill:url(#linear-gradient-28);}.cls-37{fill:url(#linear-gradient-29);}.cls-38{fill:url(#linear-gradient-30);}.cls-39{fill:url(#linear-gradient-31);}.cls-40{fill:url(#linear-gradient-32);}.cls-41{fill:url(#linear-gradient-33);}.cls-42{fill:url(#linear-gradient-34);}.cls-43{fill:url(#linear-gradient-35);}.cls-44{fill:url(#linear-gradient-36);}.cls-45{fill:url(#linear-gradient-37);}.cls-46{fill:url(#linear-gradient-38);}.cls-47{fill:url(#linear-gradient-39);}.cls-48{fill:url(#linear-gradient-40);}.cls-49{fill:url(#linear-gradient-41);}.cls-50{fill:url(#linear-gradient-42);}.cls-51{fill:url(#linear-gradient-43);}.cls-52{fill:url(#linear-gradient-44);}.cls-53{fill:url(#linear-gradient-45);}.cls-54{fill:url(#linear-gradient-46);}.cls-55{fill:url(#linear-gradient-47);}.cls-56{fill:url(#linear-gradient-48);}.cls-57{fill:url(#linear-gradient-49);}.cls-58{fill:url(#linear-gradient-50);}.cls-59{fill:url(#linear-gradient-51);}.cls-103,.cls-60{fill:#adadad;}.cls-61{fill:#4a4144;}.cls-62{fill:#352f31;}.cls-63{fill:#72656a;}.cls-64{fill:#66c4a9;}.cls-65{fill:#edd6d1;}.cls-66{fill:#b29b95;}.cls-67{fill:#c05706;}.cls-68{fill:#ffba6f;}.cls-69{fill:#fef1e1;}.cls-70{fill:#f9e6d2;}.cls-71{fill:#d8d8d8;}.cls-72{fill:#fffaf5;}.cls-73{fill:#7dd8bc;}.cls-108,.cls-74{fill:#eaeaea;}.cls-75{fill:#bfa9a5;}.cls-76{fill:url(#linear-gradient-52);}.cls-77{fill:url(#linear-gradient-53);}.cls-78{fill:#50aa8e;}.cls-79{fill:#499b81;}.cls-80{fill:#ccb1ac;}.cls-81{fill:#937c77;}.cls-82{fill:#4b7c41;}.cls-83{fill:url(#linear-gradient-54);}.cls-84{fill:#305926;}.cls-85{fill:url(#linear-gradient-55);}.cls-86{fill:url(#linear-gradient-56);}.cls-87{fill:url(#linear-gradient-57);}.cls-88{fill:#c67f4e;}.cls-89{fill:url(#linear-gradient-58);}.cls-90{fill:#42260b;}.cls-123,.cls-91{fill:#fff;}.cls-91{opacity:0.21;}.cls-92{fill:url(#linear-gradient-59);}.cls-93{fill:url(#linear-gradient-60);}.cls-94{fill:url(#linear-gradient-61);}.cls-95{fill:url(#linear-gradient-62);}.cls-96{fill:url(#linear-gradient-63);}.cls-97{fill:url(#linear-gradient-64);}.cls-98{fill:url(#linear-gradient-65);}.cls-99{fill:url(#linear-gradient-66);}.cls-100{fill:#ce8536;}.cls-101{fill:#d3d3d3;}.cls-104,.cls-127{fill:#f05962;}.cls-105{fill:#ffefe9;}.cls-106{fill:#bf3643;}.cls-107{fill:#e8d5c1;}.cls-109{fill:#490a0a;mix-blend-mode:screen;}.cls-110{fill:#bc808c;}.cls-111{fill:#ffdb92;}.cls-112{fill:url(#radial-gradient);}.cls-113{fill:url(#linear-gradient-67);}.cls-114{fill:url(#radial-gradient-2);}.cls-115{fill:url(#radial-gradient-3);}.cls-116{fill:url(#radial-gradient-4);}.cls-117{fill:url(#radial-gradient-5);}.cls-118{fill:url(#radial-gradient-6);}.cls-119{fill:url(#radial-gradient-7);}.cls-120{fill:url(#radial-gradient-8);}.cls-121{fill:url(#radial-gradient-9);}.cls-122{fill:#1c1c1a;}.cls-124{fill:#ba8a2a;}.cls-125{fill:#eac47a;}.cls-126{fill:#d1a137;}.cls-127{font-size:100px;font-family:Rubik-Bold, Rubik;font-weight:700;}.cls-128{letter-spacing:0em;}</style><linearGradient id="linear-gradient" x1="459.02" y1="697.07" x2="448.15" y2="229.39" gradientUnits="userSpaceOnUse"><stop offset="0" stop-color="#7a9e28"/><stop offset="1" stop-color="#a7c75c"/></linearGradient><linearGradient id="linear-gradient-2" x1="334.48" y1="1472.58" x2="456.51" y2="1086.15" gradientUnits="userSpaceOnUse"><stop offset="0" stop-color="#cf7923"/><stop offset="1" stop-color="#803f00"/><stop offset="1" stop-color="#522f0d"/></linearGradient><linearGradient id="linear-gradient-3" x1="476.45" y1="1046.13" x2="361.63" y2="1195.19" gradientUnits="userSpaceOnUse"><stop offset="0" stop-color="#995815"/><stop offset="1" stop-color="#9f5c16"/></linearGradient><linearGradient id="linear-gradient-4" x1="278.35" y1="1533.55" x2="520.98" y2="1356.65" xlink:href="#linear-gradient-2"/><linearGradient id="linear-gradient-5" x1="301.64" y1="975.54" x2="760.61" y2="640.91" xlink:href="#linear-gradient-2"/><linearGradient id="linear-gradient-6" x1="232.25" y1="841.06" x2="340.74" y2="761.96" xlink:href="#linear-gradient-2"/><linearGradient id="linear-gradient-7" x1="299.39" y1="848.6" x2="397.12" y2="777.34" xlink:href="#linear-gradient-2"/><linearGradient id="linear-gradient-8" x1="391.64" y1="849.67" x2="417.41" y2="830.87" xlink:href="#linear-gradient-2"/><linearGradient id="linear-gradient-9" x1="408.47" y1="866.94" x2="475.8" y2="817.86" xlink:href="#linear-gradient-2"/><linearGradient id="linear-gradient-10" x1="389.21" y1="816.46" x2="491.1" y2="774.06" gradientUnits="userSpaceOnUse"><stop offset="0" stop-color="#995815"/><stop offset="1" stop-color="#cf7923"/></linearGradient><linearGradient id="linear-gradient-11" x1="457.08" y1="798.1" x2="439.47" y2="820.97" xlink:href="#linear-gradient-10"/><linearGradient id="linear-gradient-12" x1="490" y1="739.61" x2="471.13" y2="764.1" xlink:href="#linear-gradient-10"/><linearGradient id="linear-gradient-13" x1="377.44" y1="696.42" x2="458.18" y2="702.63" xlink:href="#linear-gradient-10"/><linearGradient id="linear-gradient-14" x1="405.9" y1="840.07" x2="427.55" y2="824.28" xlink:href="#linear-gradient-2"/><linearGradient id="linear-gradient-15" x1="646.17" y1="692.73" x2="635.3" y2="225.06" xlink:href="#linear-gradient"/><linearGradient id="linear-gradient-16" x1="275.88" y1="701.34" x2="265" y2="233.65" xlink:href="#linear-gradient"/><linearGradient id="linear-gradient-17" x1="417.43" y1="361.15" x2="449.56" y2="361.15" xlink:href="#linear-gradient"/><linearGradient id="linear-gradient-18" x1="546.2" y1="348.21" x2="612.18" y2="348.21" xlink:href="#linear-gradient"/><linearGradient id="linear-gradient-19" x1="545.13" y1="331.17" x2="588.18" y2="331.17" xlink:href="#linear-gradient"/><linearGradient id="linear-gradient-20" x1="478.67" y1="323.34" x2="519.98" y2="323.34" xlink:href="#linear-gradient"/><linearGradient id="linear-gradient-21" x1="141.76" y1="435.8" x2="172.94" y2="435.8" xlink:href="#linear-gradient"/><linearGradient id="linear-gradient-22" x1="112.3" y1="445.07" x2="173.57" y2="445.07" xlink:href="#linear-gradient"/><linearGradient id="linear-gradient-23" x1="134.25" y1="210.43" x2="493.34" y2="668.43" gradientUnits="userSpaceOnUse"><stop offset="0" stop-color="#bce068"/><stop offset="0.89" stop-color="#a7c75c"/></linearGradient><linearGradient id="linear-gradient-24" x1="-15.36" y1="327.73" x2="343.73" y2="785.73" xlink:href="#linear-gradient-23"/><linearGradient id="linear-gradient-25" x1="-86.72" y1="383.68" x2="272.36" y2="841.68" xlink:href="#linear-gradient-23"/><linearGradient id="linear-gradient-26" x1="-94.19" y1="389.53" x2="264.9" y2="847.53" xlink:href="#linear-gradient-23"/><linearGradient id="linear-gradient-27" x1="-101.35" y1="395.15" x2="257.74" y2="853.15" xlink:href="#linear-gradient-23"/><linearGradient id="linear-gradient-28" x1="187.13" y1="168.96" x2="546.22" y2="626.96" xlink:href="#linear-gradient-23"/><linearGradient id="linear-gradient-29" x1="211.5" y1="149.87" x2="570.59" y2="607.87" xlink:href="#linear-gradient-23"/><linearGradient id="linear-gradient-30" x1="231.81" y1="133.93" x2="590.9" y2="591.93" xlink:href="#linear-gradient-23"/><linearGradient id="linear-gradient-31" x1="84.08" y1="249.76" x2="443.17" y2="707.76" xlink:href="#linear-gradient-23"/><linearGradient id="linear-gradient-32" x1="50.14" y1="276.37" x2="409.23" y2="734.37" xlink:href="#linear-gradient-23"/><linearGradient id="linear-gradient-33" x1="268.13" y1="701.52" x2="257.25" y2="233.83" xlink:href="#linear-gradient"/><linearGradient id="linear-gradient-34" x1="69.41" y1="706.14" x2="58.53" y2="238.45" xlink:href="#linear-gradient"/><linearGradient id="linear-gradient-35" x1="55.24" y1="706.47" x2="44.36" y2="238.78" xlink:href="#linear-gradient"/><linearGradient id="linear-gradient-36" x1="62.03" y1="706.31" x2="51.16" y2="238.62" xlink:href="#linear-gradient"/><linearGradient id="linear-gradient-37" x1="379.12" y1="698.93" x2="368.24" y2="231.24" xlink:href="#linear-gradient"/><linearGradient id="linear-gradient-38" x1="293.83" y1="700.92" x2="282.96" y2="233.23" xlink:href="#linear-gradient"/><linearGradient id="linear-gradient-39" x1="234.95" y1="702.29" x2="224.07" y2="234.6" xlink:href="#linear-gradient"/><linearGradient id="linear-gradient-40" x1="337.4" y1="699.9" x2="326.52" y2="232.22" xlink:href="#linear-gradient"/><linearGradient id="linear-gradient-41" x1="415.1" y1="698.1" x2="404.23" y2="230.41" xlink:href="#linear-gradient"/><linearGradient id="linear-gradient-42" x1="403.32" y1="698.37" x2="392.44" y2="230.68" xlink:href="#linear-gradient"/><linearGradient id="linear-gradient-43" x1="420.25" y1="697.98" x2="409.37" y2="230.29" xlink:href="#linear-gradient"/><linearGradient id="linear-gradient-44" x1="-16.44" y1="328.57" x2="342.65" y2="786.57" xlink:href="#linear-gradient-23"/><linearGradient id="linear-gradient-45" x1="18.32" y1="301.32" x2="377.41" y2="759.32" xlink:href="#linear-gradient-23"/><linearGradient id="linear-gradient-46" x1="38.15" y1="285.78" x2="397.24" y2="743.78" xlink:href="#linear-gradient-23"/><linearGradient id="linear-gradient-47" x1="109.56" y1="229.78" x2="468.65" y2="687.78" xlink:href="#linear-gradient-23"/><linearGradient id="linear-gradient-48" x1="118.65" y1="222.66" x2="477.74" y2="680.66" xlink:href="#linear-gradient-23"/><linearGradient id="linear-gradient-49" x1="71.83" y1="259.37" x2="430.92" y2="717.36" xlink:href="#linear-gradient-23"/><linearGradient id="linear-gradient-50" x1="281.64" y1="94.87" x2="640.73" y2="552.87" xlink:href="#linear-gradient-23"/><linearGradient id="linear-gradient-51" x1="286.64" y1="90.95" x2="645.73" y2="548.95" xlink:href="#linear-gradient-23"/><linearGradient id="linear-gradient-52" x1="1282.56" y1="1468.66" x2="922.78" y2="789.07" gradientUnits="userSpaceOnUse"><stop offset="0.11" stop-color="#12b8a5"/><stop offset="1" stop-color="#004459"/></linearGradient><linearGradient id="linear-gradient-53" x1="1282.57" y1="1468.67" x2="922.79" y2="789.07" gradientUnits="userSpaceOnUse"><stop offset="0" stop-color="#612800"/><stop offset="1" stop-color="#b84900"/></linearGradient><linearGradient id="linear-gradient-54" x1="1432.79" y1="1129.14" x2="1626.51" y2="1129.14" xlink:href="#linear-gradient-53"/><linearGradient id="linear-gradient-55" x1="726.4" y1="1188.78" x2="750.7" y2="1188.78" gradientTransform="matrix(-1, 0, 0, 1, 2667.78, 0)" gradientUnits="userSpaceOnUse"><stop offset="0" stop-color="#612800"/><stop offset="0.46" stop-color="#632900"/><stop offset="0.63" stop-color="#6a2b00"/><stop offset="0.75" stop-color="#753000"/><stop offset="0.84" stop-color="#863600"/><stop offset="0.93" stop-color="#9c3e00"/><stop offset="1" stop-color="#b74800"/><stop offset="1" stop-color="#b84900"/></linearGradient><linearGradient id="linear-gradient-56" x1="722.13" y1="1190.49" x2="726.4" y2="1190.49" gradientTransform="matrix(-1, 0, 0, 1, 2667.78, 0)" gradientUnits="userSpaceOnUse"><stop offset="0" stop-color="#aa7c4f"/><stop offset="1" stop-color="#b86c3b"/></linearGradient><linearGradient id="linear-gradient-57" x1="1819.16" y1="1102.55" x2="1928.11" y2="1102.55" xlink:href="#linear-gradient-53"/><linearGradient id="linear-gradient-58" x1="852.9" y1="1128.26" x2="1348.85" y2="1128.26" gradientTransform="matrix(1, 0, 0, 1, 0, 0)" xlink:href="#linear-gradient-56"/><linearGradient id="linear-gradient-59" x1="1608.93" y1="1063.06" x2="1435.18" y2="979.96" xlink:href="#linear-gradient-52"/><linearGradient id="linear-gradient-60" x1="1948.27" y1="1064.43" x2="1780.78" y2="933.84" xlink:href="#linear-gradient-52"/><linearGradient id="linear-gradient-61" x1="1432.79" y1="1015.34" x2="1607.5" y2="1015.34" gradientTransform="matrix(1, 0, 0, 1, 0, 0)" xlink:href="#linear-gradient-55"/><linearGradient id="linear-gradient-62" x1="1432.79" y1="1016.06" x2="1588.55" y2="1016.06" gradientTransform="matrix(1, 0, 0, 1, 0, 0)" xlink:href="#linear-gradient-56"/><linearGradient id="linear-gradient-63" x1="1619.09" y1="1129.14" x2="1649.91" y2="1129.14" gradientTransform="matrix(1, 0, 0, 1, 0, 0)" xlink:href="#linear-gradient-55"/><linearGradient id="linear-gradient-64" x1="1585.12" y1="1188.78" x2="1609.41" y2="1188.78" gradientTransform="matrix(1, 0, 0, 1, 0, 0)" xlink:href="#linear-gradient-55"/><linearGradient id="linear-gradient-65" x1="1580.85" y1="1190.49" x2="1585.12" y2="1190.49" gradientTransform="matrix(1, 0, 0, 1, 0, 0)" xlink:href="#linear-gradient-56"/><linearGradient id="linear-gradient-66" x1="1827.44" y1="1010.33" x2="1917.08" y2="1010.33" gradientTransform="matrix(1, 0, 0, 1, 0, 0)" xlink:href="#linear-gradient-55"/><radialGradient id="radial-gradient" cx="766.08" cy="522.9" r="58" gradientTransform="matrix(-1.26, 0, 0, 1, 1501.63, 0)" gradientUnits="userSpaceOnUse"><stop offset="0" stop-color="#fffbcf"/><stop offset="0.15" stop-color="#eef5d1"/><stop offset="0.44" stop-color="#c1e6d8"/><stop offset="0.86" stop-color="#79cfe2"/><stop offset="1" stop-color="#5ec6e6"/></radialGradient><linearGradient id="linear-gradient-67" x1="532.6" y1="563.75" x2="625.81" y2="563.75" gradientTransform="matrix(-1, 0, 0, 1, 1136.17, 0)" xlink:href="#radial-gradient"/><radialGradient id="radial-gradient-2" cx="770.25" cy="570.03" r="22.79" xlink:href="#radial-gradient"/><radialGradient id="radial-gradient-3" cx="744.83" cy="544.69" r="34.51" xlink:href="#radial-gradient"/><radialGradient id="radial-gradient-4" cx="733.22" cy="572.92" r="12.76" xlink:href="#radial-gradient"/><radialGradient id="radial-gradient-5" cx="734.79" cy="586.87" r="7.25" xlink:href="#radial-gradient"/><radialGradient id="radial-gradient-6" cx="729.17" cy="589.05" r="6.45" xlink:href="#radial-gradient"/><radialGradient id="radial-gradient-7" cx="716.66" cy="587.39" r="4.36" xlink:href="#radial-gradient"/><radialGradient id="radial-gradient-8" cx="718.73" cy="588.9" r="5.81" xlink:href="#radial-gradient"/><radialGradient id="radial-gradient-9" cx="725.47" cy="588.25" r="5.49" xlink:href="#radial-gradient"/></defs><g class="cls-1"><g id="katman_2" data-name="katman 2"><g id="Layer_1" data-name="Layer 1"><path class="cls-2" d="M876.46,1451.66H385.84q-21.48,0-40.08-.26-6.09-.08-11.89-.2-7.86-.15-15.22-.37h-.42l-8.59-.29-4.77-.16c-123.49-4.85-128.38-23.81-133.53-68.4a134.87,134.87,0,0,1,20.45-87.59c-2.61,35.3-4.38,74.11,16.54,93.52a114.38,114.38,0,0,0,13.36,9.59c1,.63,2.08,1.25,3.13,1.86q4.78,2.73,9.79,5.05c1.12.52,2.23,1,3.36,1.49l1.71.73c3.43,1.43,6.93,2.71,10.49,3.88a188.84,188.84,0,0,0,33.71,7.56,286.94,286.94,0,0,0,37.09,2.51c1.08,0,2.16,0,3.25,0h.42v0a10.28,10.28,0,0,0,1.24,0h0c1.23,0,2.45,0,3.68,0h0l5.46-.12c1.7,0,3.4-.09,5.1-.16.25,0,.5,0,.76,0,3.56-.14,7.13-.31,10.71-.54,11.05-.66,22.11-1.68,33-2.89,3.45-.37,6.9-.78,10.32-1.19.18,0,.36-.06.52-.07,2-.23,4-.48,6-.73l1.81-.23c1-.13,1.95-.24,2.91-.38.41,0,.8-.12,1.21-.15l4.08-.54c1.09-.09,2.18-.16,3.27-.26,2.94-.24,5.91-.51,8.88-.84,1.25-.13,2.49-.28,3.75-.43l1.16-.15c1-.12,1.91-.24,2.84-.38s1.89-.27,2.83-.42c.39,0,.77-.12,1.15-.18l1.67-.28,2.8-.49c1.86-.36,3.7-.74,5.51-1.16.92-.2,1.83-.43,2.73-.66l2.24-.59,1.56-.44,2-.6,1.06-.33,1.53-.51c.52-.17,1-.35,1.54-.54s1.24-.45,1.85-.7c.36-.11.7-.25,1-.39,1.32-.54,2.63-1.11,3.89-1.71.41-.18.8-.37,1.2-.59.74-.34,1.47-.72,2.19-1.11a1.65,1.65,0,0,1,.32-.18c.72-.38,1.43-.79,2.13-1.22.38-.21.74-.43,1.11-.68l1.19-.75c.28-.19.56-.37.84-.58.55-.37,1.09-.76,1.64-1.16s.91-.67,1.35-1c.15-.13.32-.24.47-.38.44-.35.89-.71,1.32-1.09.18-.14.35-.31.53-.46.42-.36.83-.74,1.23-1.12.72-.67,1.43-1.38,2.11-2.1q.5-.49.93-1c.21-.22.41-.45.61-.68s.59-.67.88-1,.39-.48.58-.73a1.92,1.92,0,0,0,.13-.17c.31-.39.62-.8.91-1.2,1-1.36,1.93-2.78,2.8-4.26.72-1.5,1.4-3,2-4.5s1.26-3,1.82-4.49c.19-.51.36-1,.55-1.52.55-1.5,1.06-3,1.53-4.51,0,0,0,0,0,0a106.64,106.64,0,0,0,3.56-15.2s0,0,0,0a130.53,130.53,0,0,0,.54-34.9h10c.37,1.47.8,2.88,1.27,4.23a41.63,41.63,0,0,0,10.32,16.51c12.37,12.06,31.24,14.53,47.62,10.45a57,57,0,0,0,12.41-4.62c.69-.35,1.38-.72,2.05-1.11h0c.68-.38,1.33-.79,2-1.2a32.71,32.71,0,0,0,2.82-1.94c.6-.44,1.2-.91,1.77-1.38a108.9,108.9,0,0,0,10.65-9.54,114.82,114.82,0,0,0,15.19-19.3,126,126,0,0,0,14.25-32,135.88,135.88,0,0,0,5.07-46.22c0-3.83-1.89-7.39-5-10.46a33.51,33.51,0,0,0-9.41-6.35q-1.29-.6-2.64-1.11c-.9-.36-1.81-.68-2.75-1s-1.62-.49-2.44-.69c-.23-.07-.47-.13-.7-.18a42.6,42.6,0,0,0-9.7-1.18h0a73.39,73.39,0,0,0,8.35-11.6s0,0,0,0a61.34,61.34,0,0,0,3.36-6.61v0a55.44,55.44,0,0,0,2-5.35c6-18.08,2.81-36.74-6.39-52.86-.48-.85-1-1.7-1.51-2.54a87.08,87.08,0,0,0-13.21-16.37c-.44-.44-.9-.87-1.36-1.3h0c-1.84-1.71-3.74-3.36-5.72-4.94-1.49-1.17-3-2.32-4.59-3.42a94.69,94.69,0,0,0-13.23-7.73,90,90,0,0,0-10.78-4.36,88.73,88.73,0,0,0-9-2.47,8.21,8.21,0,0,0-.83-.18q-3.64-.76-7.36-1.22h0a52.32,52.32,0,0,0-1.08-8.36c0-.21-.09-.43-.14-.64a46.76,46.76,0,0,0-1.23-4.58A49.76,49.76,0,0,0,537,1068c-.23-.49-.47-1-.73-1.47a43.86,43.86,0,0,0-2.43-4.27,63.31,63.31,0,0,0-9.47-11.59c-.41-.4-.81-.8-1.23-1.19a92.74,92.74,0,0,0-8-6.66c14.6-14.61,43.24-20.52,90.7-13.56a76.26,76.26,0,0,1,19,5.17c39.78,16.77,45.06,63.74,98.72,98.57a190.06,190.06,0,0,0,37.36,18.64c3.62,1.39,7.41,2.7,11.32,4C826,1173,850.54,1191,861.46,1205a41.29,41.29,0,0,1,7.29,13.69v0a25.53,25.53,0,0,1,.94,9.22,19.72,19.72,0,0,1-.36,1.94,8,8,0,0,1-.41,1.34l.23,6.87,1.38,40.51,4.57,133.47v0l.25,6.86Z"/><path class="cls-3" d="M191.79,1294.39a128,128,0,0,1,30.1-32.71c4,24.45,8.88,46.85,31.58,63.4,9.38,7,15.94-.38,15.53-9.4,34.93-6.86,67.4-4.58,102.36-9.22,22.57-2.32,45.14-9.31,32.6-37.23,15.05-4.66,30.1,9.31,22.58,23.27,35.11,9.31,37.62-34.91,52.67-55.85,2.5,0,7.52-7,10-2.33,2.51,18.62,22.57,21,37.62,21-2.51,4.65,2.51,7,5,9.3,12.54-16.29,12.54-34.9,10-55.85-5-14-15-23.27-32.61-25.6h5c-12.54-14-37.62-23.27-42.64-32.58-10.54-19.56-10-41.69-5.66-64.36,20.12,10.43,34.46,19.78,44.58,28-10.66-30.38-11-55.82,4.53-71.38,15.24,11.25,25.83,25.59,26.78,44.91,57.69,7,102.83,72.14,60.19,121,15,0,32.61,9.31,32.61,21,2.51,39.56-12.54,81.45-45.15,107-22.57,18.61-70.22,18.61-80.26-21h-10c2.51,23.27,0,44.22-10,65.16-15.05,25.6-47.66,30.26-77.75,32.58-70.23,9.31-153,16.29-203.16-25.6C187.41,1368.51,189.17,1329.69,191.79,1294.39Z"/><path class="cls-3" d="M266,1306.46a18.75,18.75,0,0,1,3,9.22l-.48.09C266,1318.1,266,1311.12,266,1306.46Z"/><path class="cls-4" d="M471.68,1150.54c5,9.31,30.1,18.62,42.64,32.58h-5c17.56,2.33,27.59,11.64,32.61,25.6,2.51,21,2.51,39.56-10,55.85-2.51-2.32-7.53-4.65-5-9.3-15.05,0-35.11-2.33-37.62-21-2.51-4.65-7.53,2.33-10,2.33-15,20.94-17.56,65.16-52.67,55.85,7.52-14-7.53-27.93-22.58-23.27,12.54,27.92-10,34.91-32.6,37.23-35,4.64-67.43,2.36-102.36,9.22a18.75,18.75,0,0,0-3-9.22c0,4.66,0,11.64,2.5,9.31l.48-.09c.41,9-6.15,16.36-15.53,9.4-22.7-16.55-27.58-38.95-31.58-63.4,31.07-23.68,75.66-34.88,132.27-21.45,5.79,1.37,11.13,2.69,16.12,4a133.5,133.5,0,0,1-28.92-23.46c-62.92-69-6.33-196.29,105.49-144,6.92,3.24,13.28,6.38,19.17,9.44C461.68,1108.85,461.14,1131,471.68,1150.54Z"/><path class="cls-3" d="M402.58,774s-23.15,3.44-18.05,33.31,11.37,35.47,11.37,35.47A45.37,45.37,0,0,0,415,811.05C417.85,789.08,402.58,774,402.58,774Z"/><path class="cls-3" d="M351.2,789.22s-22.15-7.57-31.31,21.33-6.14,36.74-6.14,36.74a45.36,45.36,0,0,0,31.49-19.51C357.88,809.58,351.2,789.22,351.2,789.22Z"/><path class="cls-3" d="M345.13,771s-19.48,13-2.11,37.83S368.44,836,368.44,836a45.36,45.36,0,0,0,3.68-36.86C365.36,778.05,345.13,771,345.13,771Z"/><path class="cls-5" d="M872.36,662.63A182.8,182.8,0,0,0,853.22,666h0c-25.16,5.92-39.7,16-49.07,27.81a83.77,83.77,0,0,0-11.82,20.84c-1.06,2.61-2,5.22-3,7.82-.18.51-.35,1-.53,1.52-2.51,7.08-4.77,14-7.67,20.55v0C777.25,753.21,772.26,761,764,767c-.79.57-1.6,1.13-2.45,1.66a49.31,49.31,0,0,1-5.45,3c-1,.46-2,.9-3,1.34-1.56.63-3.22,1.22-5,1.77s-3.61,1.06-5.56,1.51c-1.09.25-2.16.51-3.21.77s-2.08.52-3.09.79c-1.52.39-3,.8-4.44,1.2-1.9.55-3.75,1.11-5.51,1.68s-3.48,1.14-5.13,1.72c-2,.72-4,1.47-5.84,2.22s-3.63,1.51-5.31,2.28-3.28,1.53-4.82,2.32c-.3.17-.59.32-.9.47-1.49.77-2.93,1.56-4.28,2.36-.82.47-1.61.94-2.39,1.42s-1.52.94-2.25,1.42c-1,.62-1.92,1.25-2.83,1.89s-1.79,1.25-2.65,1.87l-1.26.93c-.41.32-.82.62-1.23.92-.81.61-1.59,1.23-2.37,1.83l-1.14.9-1.13.9c-6.68,5.32-12.36,10-20.23,13.23-.87.36-1.79.7-2.71,1-6.26,2.12-13.92,3.33-24.31,3.26-8.46,0-15.82.3-22.51.81-.8.05-1.59.11-2.36.18l-.71.06h0l-3,.27-2.9.26-4.26.42-2.32.22h0l-.43,0-2.72.26h0c-.9.08-1.8.17-2.7.24-2.23.21-4.46.37-6.69.51-17.71-1-38.86-4.8-70.37-14.68-4.39-1.36-8.6-2.65-12.68-3.84-.46-.13-.9-.27-1.36-.39-2.38-.7-4.73-1.36-7-2-1-.29-2-.57-3-.83-2.94-.78-5.81-1.52-8.6-2.2l-1.44-.34-1.05-.26-1.25-.29c-.33-.09-.67-.16-1-.24l-2.2-.51c-1.77-.48-3.49-.92-5.18-1.34-2.29-.57-4.52-1.08-6.69-1.55-4.08-.86-8-1.54-11.7-2.05a1.25,1.25,0,0,1-.19,0c-3.31-.44-6.5-.76-9.6-.94h-.25c-1.07-.06-2.11-.11-3.13-.14q-3.37-.1-6.58,0l-2.45-.06q-2.22,0-4.41,0c-2.52,0-5,.14-7.46.31-1.2.07-2.4.19-3.58.29l-.33,0h-.08l-1.84.2-.47.06c-.68.07-1.35.14-2,.25-.93.11-1.87.24-2.8.38l-1.52.24-2.19.36q-1,.17-1.92.36a.87.87,0,0,0-.22,0c-1.45.27-2.86.57-4.28.89l-.2,0c-1.37.3-2.7.62-4,1h0l-2.15.56c-1.94.51-3.87,1.07-5.81,1.66l-.68.22h0l-.18,0-2,.63-2.2.73-1.8.6a4,4,0,0,1-.41.14c-1.08.38-2.17.76-3.26,1.16l-.64.23-2.56,1h0a.44.44,0,0,0-.15,0c-.18.06-.36.14-.55.22s-.45.16-.68.25l-.07,0c-1.06.4-2.14.82-3.22,1.25-3,1.19-6.14,2.47-9.31,3.8-.74.32-1.49.62-2.25.91l-1.81.71c-.17.08-.34.14-.52.21l-.72.26c-.93.36-1.88.69-2.84,1l-1,.32-.22.07c-.06,0-.09,0-.14,0l-.41.15-.48.17-.65.19-2.72.89-2.21.67c-2.23.67-4.5,1.3-6.79,1.91l-3,.75c-2,.52-4.12,1-6.21,1.47l-.75.18-1.75.38-3.37.71-1.63.33-3.21.62-2,.37c-1.08.2-2.13.39-3.21.57-2.14.38-4.29.72-6.42,1.06l-.54.09-.72.12-2.38.36-2.78.4-3.18.44-2.78.37-.39,0c-1.36.18-2.7.34-4,.49l-2.24.28-1.74.21c-2.16.24-4.29.46-6.39.68-2.57.25-5.1.49-7.57.71h0c-1.73.15-3.43.3-5.09.43l-2.75.22h0c-2.09.16-4.13.3-6.1.43l-2,.12-3.3.21h-.1l-3.09.17a1.14,1.14,0,0,1-.26,0l-1.64.09-2.58.12-2.08.09-1.44.06-2.32.09-3.7.13-2.34.06c-.33,0-.64,0-.93,0l-.87,0a3.77,3.77,0,0,0-.47,0l-1.64,0c-1.39,0-2.13,0-2.13,0a45.79,45.79,0,0,1-9,9.7,74.53,74.53,0,0,1-15.69,10c-1.12.55-2.29,1.08-3.5,1.6-.82.34-1.64.68-2.49,1s-1.71.66-2.6,1c-.44.17-.9.32-1.35.47-.92.32-1.84.62-2.79.91q-3.18,1-6.67,1.83l-2.47.56c-1.49-.31-2.91-.62-4.28-1l-2-.52c-.66-.18-1.3-.36-1.93-.55a5.08,5.08,0,0,1-.52-.15c-1.06-.33-2.09-.66-3.08-1h0c-1.74-.61-3.35-1.25-4.87-1.92a0,0,0,0,1,0,0c-.44-.19-.87-.4-1.3-.6-.74-.34-1.46-.7-2.15-1.08l-.07,0c-.62-.31-1.22-.66-1.8-1-.27-.15-.52-.3-.78-.47s-.47-.28-.68-.43c-.38-.24-.75-.49-1.12-.75-.53-.37-1.05-.73-1.54-1.11s-1.12-.88-1.65-1.34l-.81-.72-.78-.72c-.26-.25-.52-.52-.77-.77s-.47-.5-.7-.75c-.48-.51-.91-1-1.31-1.54a29.51,29.51,0,0,1-2.29-3.17l-.49-.81c-.23-.36-.44-.73-.65-1.11s-.33-.61-.49-.93c-.42-.81-.8-1.62-1.17-2.44a62.92,62.92,0,0,1-2.69-7.86c-.86-3.19-1.54-6.34-2.32-9.37-.12-.51-.25-1-.39-1.5-.09-.33-.18-.67-.28-1s-.19-.66-.28-1-.19-.65-.3-1-.2-.63-.32-1a34.33,34.33,0,0,0-1.47-3.7c-.14-.29-.28-.6-.43-.89s-.29-.58-.46-.86-.31-.57-.49-.85-.31-.48-.46-.72l-.2-.31c-.14-.2-.28-.4-.43-.59a19.74,19.74,0,0,0-1.93-2.28,25,25,0,0,0-11.61-6.45c-.84-.22-1.7-.44-2.6-.63-.61-.13-1.23-.25-1.86-.35a67.06,67.06,0,0,0-8.64-.88c-.74,0-1.51-.07-2.28-.11-1.53-.1-3.1-.24-4.69-.42s-3.21-.38-4.84-.64l-2.22-.36c-.91-.14-1.83-.31-2.75-.48-1.68-.32-3.36-.66-5.07-1-2.7-.61-5.43-1.28-8.17-2.05-3.29-.9-6.6-1.91-9.9-3h0c-1.36-.46-2.71-.93-4.07-1.42a185.44,185.44,0,0,1-19.89-8.42,2.35,2.35,0,0,0-.24-.11l-.37-.19c-.3-.17-.6-.32-.88-.46-.62-.31-1.16-.6-1.64-.85-.24-.11-.46-.23-.66-.34a2.38,2.38,0,0,0-.31-.17l-.94-.48-.22-.13-.22-.12,0,0h0c-34.35-18.71-51.5-45.27,4.47-59l7.4-1.83c10.29-2.56,18.94-4.83,26.16-6.83q4.78-1.35,8.76-2.55c26.55-8,26.53-11.75,16.42-16.24-4.68-2.08-11.54-4.31-18.93-7.21-29.35-11.53-11.53-51.36,44-62.89,5.59-1.16,9.3-3.1,11.6-5.64-1.51-7.87-1.49-15.71-1.17-23.24-9.71-21.21-32.2-48.44-21.53-64-22.33-29.4-47.69-65.72,7-69.83a89.2,89.2,0,0,0,13.18-1.94,64.91,64.91,0,0,0,11.5-3.71c.45-.19.88-.38,1.31-.6a53.34,53.34,0,0,0,16.07-11.24,64.2,64.2,0,0,0,9.63-12.68,117.51,117.51,0,0,0,7.86-16.49s0,0,0,0c.34-.88.68-1.76,1-2.65,9-23.75,14.26-48.21,38.6-53.66a100.52,100.52,0,0,0,14.76-4.45c.47-.18.93-.36,1.38-.55,31.63-13,31.22-35.6,60.16-32,33.19,4.14,42-8.94,83.51,21,21.18,15.3,36.11,22,49.5,22.64,8.56.42,16.47-1.65,25-5.54,3.26-1.47,6.61-3.23,10.11-5.22,1-.6,2.12-1.21,3.2-1.85,7.4-4.38,16.06-7.28,24.85-9.2A164.32,164.32,0,0,1,519,330.21a178.7,178.7,0,0,1,20.22.66s11.31-23.94,37.2-25.23a46.78,46.78,0,0,1,10.61.69,63.84,63.84,0,0,1,13.51,4.07c8.27,3.47,13.58,8,17,13.1,14.55,21.5-4,53.22,25.61,58.48,23.31,4.15,56,31,60.69,53.88,50.83-4.78,66.5,29.78,93.67,46.47,42.65,26.21,23.87,59.33,37.59,81.77S987.32,648,872.36,662.63Z"/><path class="cls-3" d="M804.13,693.83a83.77,83.77,0,0,0-11.82,20.84c-1.06,2.61-2,5.22-3,7.82-.18.51-.35,1-.53,1.52-2.51,7.08-4.77,14-7.67,20.55v0C777.25,753.21,772.26,761,764,767c-.79.57-1.6,1.13-2.45,1.66a49.31,49.31,0,0,1-5.45,3c-1,.47-2,.92-3,1.34-1.56.63-3.22,1.22-5,1.77s-3.61,1.06-5.56,1.51c-1.09.25-2.16.51-3.21.77s-2.08.52-3.09.79c-1.52.39-3,.8-4.44,1.2-1.9.55-3.75,1.11-5.51,1.68s-3.48,1.14-5.13,1.72c-2,.74-4,1.47-5.84,2.22s-3.63,1.52-5.31,2.28-3.28,1.55-4.82,2.32c-.3.17-.59.32-.9.47-1.49.79-2.93,1.57-4.28,2.36-.82.47-1.61.94-2.39,1.42s-1.52.94-2.25,1.42c-1,.62-1.92,1.25-2.83,1.89s-1.79,1.25-2.65,1.87l-1.26.93c-.41.32-.82.62-1.23.92-.81.61-1.59,1.23-2.37,1.83l-1.14.9-1.13.9c-6.68,5.32-12.36,10-20.23,13.23-.87.36-1.79.7-2.71,1-6.26,2.12-13.92,3.33-24.31,3.26-8.46,0-15.82.3-22.51.81l-2.36.19-.71,0h0l-3,.27-2.9.26-4.26.42-2.34.23-.43,0-2.72.26h0q-1.35.14-2.7.24c-2.23.21-4.46.37-6.69.51-17.71-1-38.86-4.8-70.37-14.68-4.39-1.36-8.6-2.65-12.68-3.84-.46-.13-.9-.27-1.36-.39-2.38-.7-4.73-1.36-7-2l-3-.83c-2.94-.78-5.81-1.52-8.6-2.2l-1.43-.36c-.77-.19-1.55-.36-2.31-.54l-1-.23-2.2-.51c-1.75-.39-3.48-.77-5.16-1.11-2.29-.5-4.52-.93-6.71-1.33q-6-1.14-11.68-1.91h-.1c-3.29-.44-6.49-.8-9.61-1.06-.11,0-.23,0-.34,0h0c-1-.1-2.08-.18-3.11-.25-2.24-.17-4.45-.28-6.6-.34l-2.45-.06q-2.22,0-4.41,0c-1.86,0-3.7.1-5.51.2h-.17c-1.81.1-3.6.23-5.36.4l-.33,0-1.92.2-.47.06c-.68.07-1.35.16-2,.25-.93.11-1.87.24-2.8.38l-1.52.24-2.19.36-2.14.41c-1.45.27-2.86.57-4.28.89s-2.82.66-4.24,1h0l-2.15.56c-1.94.52-3.87,1.08-5.81,1.68l-.68.2h0l-2.17.68-2.2.73-1.8.6a4,4,0,0,1-.41.14c-1.08.38-2.17.76-3.26,1.16l-.64.23-2.57,1a.44.44,0,0,0-.15,0l-.56.2-.67.27-.07,0c-1.06.41-2.14.82-3.22,1.25-3,1.19-6.14,2.47-9.31,3.8-.74.32-1.49.62-2.25.91l-1.81.71c-.41.17-.82.32-1.24.47-.93.36-1.88.69-2.84,1l-.93.32-.4.14a3.24,3.24,0,0,1-.41.13l-.48.17c-.56.19-1.14.35-1.71.53l-1.66.55-2.21.67c-2.23.67-4.5,1.3-6.79,1.91l-3,.75-.32.08c-2.19.54-4.4,1.07-6.64,1.57l-1.75.38-3.37.71-1.63.33-3.21.62-2,.37c-1.08.2-2.13.39-3.21.57l-.2,0c-2.25.39-4.5.77-6.76,1.12h0l-.69.11-2.38.36-2.78.4-3.18.44-2.78.37-.39,0c-1.42.19-2.83.37-4.22.53l-2.05.24-1.74.21c-2.16.24-4.3.46-6.39.68-2.57.25-5.1.49-7.57.71h0c-1.73.15-3.43.3-5.09.43l-2.75.22h0c-2.09.16-4.13.3-6.1.43l-5.26.33h-.1l-3.09.17a1.14,1.14,0,0,1-.26,0l-1.64.09-2.58.12-2.08.09-1.44.06-2.32.09-3.7.13c-1.22,0-2.31.08-3.27.09l-.87,0a3.77,3.77,0,0,0-.47,0l-1.64,0c-1.39,0-2.13,0-2.13,0a45.79,45.79,0,0,1-9,9.7,74.53,74.53,0,0,1-15.69,10c-1.12.55-2.29,1.08-3.5,1.6-.82.34-1.64.68-2.49,1s-1.71.66-2.6,1c-.44.17-.9.32-1.35.47-.92.32-1.84.62-2.79.91-2.12.66-4.34,1.28-6.67,1.83h0l-2.47.56c-1.49-.3-2.91-.62-4.28-1l-2-.52c-.66-.18-1.3-.36-1.93-.55a5.08,5.08,0,0,1-.52-.15c-1.06-.33-2.09-.66-3.08-1h0c-1.74-.6-3.35-1.25-4.87-1.92a0,0,0,0,1,0,0c-.44-.19-.87-.4-1.3-.6-.74-.34-1.46-.7-2.15-1.08l-.07,0c-.62-.31-1.22-.66-1.8-1-.27-.15-.52-.3-.78-.47s-.47-.28-.68-.43c-.38-.24-.75-.49-1.12-.75-.53-.37-1.05-.73-1.54-1.11s-1.12-.89-1.65-1.34l-.81-.72-.78-.72c-.26-.25-.52-.52-.77-.77s-.47-.5-.7-.75c-.45-.51-.9-1-1.31-1.54a35.18,35.18,0,0,1-2.29-3.17l-.49-.81c-.23-.36-.44-.73-.65-1.11s-.33-.61-.49-.93c-.42-.81-.8-1.62-1.17-2.44a62.92,62.92,0,0,1-2.69-7.86c-.86-3.19-1.54-6.34-2.32-9.37-.12-.51-.25-1-.38-1.5h0c-.09-.33-.18-.67-.28-1s-.18-.66-.28-1-.19-.65-.3-1-.2-.64-.32-1a34.33,34.33,0,0,0-1.47-3.7c-.14-.31-.28-.6-.43-.89s-.29-.58-.46-.86-.31-.57-.49-.85-.31-.48-.46-.72l-.2-.31c-.14-.2-.28-.4-.43-.59a19.74,19.74,0,0,0-1.93-2.28,25,25,0,0,0-11.61-6.45c-.84-.22-1.7-.44-2.6-.63-.61-.13-1.23-.25-1.86-.35a69,69,0,0,0-8.64-.87c-.74,0-1.51-.07-2.28-.12-1.53-.1-3.1-.24-4.69-.42s-3.21-.38-4.84-.64c-.74-.11-1.47-.22-2.22-.35-.91-.15-1.83-.32-2.75-.49-1.68-.32-3.36-.66-5.07-1-2.7-.6-5.44-1.28-8.18-2-3.3-.92-6.61-1.92-9.9-3h0a31.15,31.15,0,0,1,11.85-3.37c1.7-.19,3.42-.36,5.13-.49.44,0,.9-.07,1.35-.1,3.2-.23,6.43-.35,9.7-.39,24.55-.34,50.84,3.79,80.72,4.28,6.67.13,13.5.06,20.55-.29,8.1-.38,16.46-1.13,25.13-2.38,1.38-.19,2.79-.41,4.19-.63,12.1-1.94,20.1-2.95,25.54-3.87,21.28-3.65,3.17-6.4,37.93-61.83,25.1-40,56.52-66.52,85.9-75.43,1.13-.34,2.26-.66,3.37-.95a75.84,75.84,0,0,1,8.54-1.7l.45-.06c2.13-.28,4.25-.47,6.33-.55a58.24,58.24,0,0,1,6.48.06c1.2.08,2.41.19,3.6.35a51.12,51.12,0,0,1,5.37,1,54,54,0,0,1,18.87,8.26,56.79,56.79,0,0,1,5.47,4.26l.22.19c.47.42.92.84,1.37,1.27a52.2,52.2,0,0,1,12.78,18.93c3.8,9.42,4.93,18.28,9.16,24.73,6.2,9.48,19.1,13.79,56.93,7.16,6.89-1.21,14.63-2.78,23.31-4.76l1.31-.29,1.67-.4.7-.15,1-.24h0l.82-.19c.28-.08.56-.14.85-.21l1.75-.41.88-.21c.77-.17,1.54-.38,2.33-.57l.39-.1c1.05-.25,2.14-.51,3.22-.8l.41-.1.14,0,.25-.05.27-.07.09,0,.1,0,1.14-.31.67-.17L553,692c.49-.13,1-.25,1.46-.39.78-.21,1.57-.42,2.34-.65l.49-.14c.6-.16,1.21-.33,1.81-.51h0a.28.28,0,0,0,.15,0l2-.59c.35-.09.69-.19,1-.31l.3-.09.28-.07.1,0a1.29,1.29,0,0,1,.21-.06l.25-.08c.51-.15,1-.3,1.48-.46s1.12-.34,1.66-.52l.93-.29.11,0c.69-.21,1.37-.44,2-.66a6.38,6.38,0,0,0,.66-.22c1.12-.36,2.23-.74,3.32-1.12l.36-.11.8-.28,2.67-1,1.78-.65,3-1.13.74-.29,2.24-.89,1.26-.5,1.26-.52,2.12-.89c48.57-20.59,58.47-44.27,83.6-45,11-.33,25.06,3.79,46.61,14.59,2.7,1.36,5.52,2.8,8.46,4.37,6.59,3.49,13.81,7.55,21.78,12.17,13.62,7.94,26.47,14.81,38.49,20.78l.53.27Q797,690.52,804.13,693.83Z"/><path class="cls-6" d="M734.16,609.67A88.28,88.28,0,0,0,728.52,621a130.31,130.31,0,0,0-4.85,14c-3.51,12.27-5.7,24.65-9.28,35.94v0c-5,15.91-12.85,29.64-31,37.86-1.72.78-3.53,1.52-5.45,2.18-69,24.36-54,58-104,61.29-21.59,1.44-35.72,5.47-50.33,7.63-17.72.12-39.06-2.77-71.14-12q-7.42-2.13-14.29-3.94c-9.33-2.45-18-4.39-26-5.89a210,210,0,0,0-33.87-3.93c-3.36-.11-6.6-.08-9.75,0a122,122,0,0,0-39.47,8.12c-11.31,4.31-22.49,10.16-34.82,17.38-26.7,15.64-66.48,24.56-95.43,29.31-21.34,3.53-36.82,4.75-36.82,4.75s-5.56,12.45-21.39,23.65a47,47,0,0,1-2.3-5.29c-2.48-6.74-3.61-13.75-5-20.28-1.51-7-3.32-13.44-7.45-18.4-4.54-5.47-11.88-9.13-24.7-9.76-12-.59-26.14-4.12-39.94-9.55,2.8-1.88,6.66-3.28,11.86-4,29.19-3.95,60.35,3.17,96.9,3.89,6.66.15,13.5.07,20.56-.34a222.2,222.2,0,0,0,29.31-3.55c59.51-11.24,19.84,4.55,63.47-77.33,25.1-47.11,56.51-78.3,85.9-88.78,14,28.78,3.3,56.92,72.84,36.49,6.09-1.8,12.8-3.95,20.2-6.53,4.75-1.65,9.78-3.46,15.13-5.47.88-.32,1.74-.66,2.6-1a262.59,262.59,0,0,0,39.31-18.72C566.57,581,575,552.48,600,549.75c15.46-1.67,37.31,6.53,78.66,30.89A600.23,600.23,0,0,0,734.16,609.67Z"/><path class="cls-7" d="M589.86,679.54c-6.22,5.77-12.38,11.63-18.41,17.5v0c-.7.65-1.4,1.35-2.1,2l-.65.63c-.56.54-1.09,1.1-1.65,1.66-2.09,2-4.17,4.11-6.19,6.16-1.3,1.33-2.61,2.63-3.86,3.94h0l-2.18,2.28c-5,5.12-9.71,10.19-14.13,15.12l0,0v0c-.7.77-1.38,1.51-2,2.28a244.56,244.56,0,0,0-19.5,24.62,55.51,55.51,0,0,0-4.31,8c-1.88,4.19-3.88,9.38-6,15.48-.4,1.09-.77,2.21-1.14,3.37-2.28,6.82-4.66,14.62-7.12,23.27-4.26,14.85-8.78,32.21-13.43,51.39-.47,1.91-.93,3.84-1.4,5.77-.35,1.47-.7,2.93-1,4.42-.7,3-1.42,6-2.15,9-.34,1.51-.69,3-1.07,4.59s-.72,3.09-1.07,4.65c-.65,2.86-1.32,5.75-2,8.68-.45,1.86-.87,3.72-1.28,5.58-.52,2.24-1,4.52-1.54,6.78v0c-11.15,49.64-22.74,106-33.63,160.83h0c-.21,1-.42,2.07-.61,3.1q-.82,4.08-1.63,8.16c-.44,2.28-.88,4.54-1.32,6.8q-3.57,17.94-6.94,35.42c-10,51.62-19,99.28-25.87,135.51-1,5.12-1.77,10.17-2.4,15.15,0,0,0,0,0,0-.37,2.89-.69,5.75-1,8.61-.14,1.42-.28,2.84-.37,4.26s-.24,2.84-.31,4.24c-.23,3.72-.39,7.42-.46,11.07-.05,1.73-.07,3.43-.07,5.12v.4c0,1.54,0,3.05,0,4.56,0,.84,0,1.7.07,2.54a3.57,3.57,0,0,0,0,.56v0a262.46,262.46,0,0,0,9.58,62.55c.66,2.31,1.31,4.59,2,6.82,0,0,0,0,0,.07v0c1.14,3.75,2.35,7.4,3.63,11,.44,1.31.91,2.61,1.4,3.89a.1.1,0,0,0,0,.07,299.87,299.87,0,0,0,17.38,38.4l2,3.58c1.39,2.51,2.81,5,4.21,7.33,3.33,5.61,6.66,10.8,9.87,15.55,1.35,2,2.7,4,4,5.79,1,1.4,2,2.72,2.91,4a242,242,0,0,0,18.17,22.13H453.76c-2.21-.07-4.51-.14-6.88-.19-10.41-.21-22.25-.11-34.75.19H371.66c-17.64,0-33.65-.14-48.22-.47a172.05,172.05,0,0,1-22.48-.65c-1.49,0-2.95-.11-4.42-.16,7.38-5.4,13.17-15.71,17.94-29.79.07-.21.17-.44.24-.67,1.53-4.61,2.95-9.61,4.3-15,5-20.1,8.75-45.24,12.24-73.35.26-2.26.54-4.54.82-6.82.62-5.16,1.23-10.47,1.86-15.85,0-.07,0-.11,0-.18l.26-2.24q1.21-10.6,2.46-21.59c1.45-12.78,2.94-25.88,4.54-39.17.24-1.86.47-3.72.68-5.61.3-2.3.58-4.6.88-6.91.05-.51.12-1,.19-1.53l.07-.4c1.86-14.61,3.88-29.39,6.19-44.12,10-64.37,16-95.18,24.29-122.27,8.1-26.51,18.36-49.43,36.73-96.72q2.53-6.49,4.79-13.26c.12-.35.23-.73.35-1.07,2.58-7.85,4.91-16,7-24.21,1.11-4.4,2.16-8.86,3.16-13.35a600.24,600.24,0,0,0,9.87-59.44c.05-.35.07-.68.12-1-.28-.45-.56-.91-.89-1.38-5.79-9.12-15.5-23.76-26.74-38.33a1.3,1.3,0,0,0-.18-.25,281.28,281.28,0,0,0-21.46-25.07c-1.91-1.9-3.79-3.74-5.66-5.49l0,0s0,0-.05,0a3.75,3.75,0,0,0-.39-.37,36,36,0,0,0-6.33-4.68,2.47,2.47,0,0,0-.38-.21c-7.12-4-14.63-4.65-22.69-3.63l-1,.14c-7.08,1-14.55,3.28-22.46,5.7h0c-3.33,1-6.73,2.05-10.22,3a1.6,1.6,0,0,0-.21,0c-.6.18-1.21.37-1.84.51-14.52,4-30.51,6.77-48.29,2.7-.81-.17-1.63-.38-2.44-.58a41.32,41.32,0,0,1-5-1.7h0c-8.26-3.47-15.62-9.89-22.11-18.09-1-1.21-1.91-2.46-2.79-3.74a.83.83,0,0,1-.23-.33c-.68-.91-1.31-1.81-1.91-2.74-.12-.17-.23-.35-.35-.54s-.12-.19-.19-.28a6,6,0,0,1-.46-.7c-.35-.56-.72-1.11-1.07-1.67-.19-.3-.35-.58-.54-.89-.49-.79-1-1.6-1.46-2.42a4.56,4.56,0,0,1-.33-.56c-.12-.2-.23-.41-.35-.62-.33-.54-.63-1.07-.93-1.61s-.58-1-.86-1.58l-.28-.51s-.05-.07-.05-.12c-1.6-2.93-3.12-6-4.56-9.08,3.26.07,6.56.07,9.94,0a2.06,2.06,0,0,0,.35,0c1.21,0,2.44,0,3.67-.12H235l2.93-.14c.58.75,1.19,1.49,1.77,2.19a.27.27,0,0,0,.07.12s.07,0,.07.07.07.07.09.09.28.33.4.49l1.42,1.68c.46.53.95,1.07,1.42,1.6l.41.47.66.72c.37.42.76.81,1.14,1.21a.53.53,0,0,0,.09.11c1.16,1.21,2.3,2.36,3.42,3.43l.82.76.76.7c.19.16.38.33.54.49h0c.4.37.82.74,1.21,1.07,1.31,1.12,2.56,2.14,3.82,3.1.23.18.46.35.7.51s.35.25.51.37c.44.33.88.65,1.32.93a1.2,1.2,0,0,0,.12.09c.58.4,1.14.77,1.72,1.12a5.37,5.37,0,0,0,.54.35,55.74,55.74,0,0,0,5.65,3.1c.38.18.75.34,1.1.48.51.24,1,.45,1.49.63a15.2,15.2,0,0,0,1.56.61l.76.28.24.07a16,16,0,0,0,1.63.51c.55.16,1.09.32,1.62.44a1.75,1.75,0,0,0,.38.09l.72.17a35.8,35.8,0,0,0,4.91.74l.86.07.54,0a0,0,0,0,1,.06,0,7.31,7.31,0,0,0,.8,0c1.09,0,2,0,2.86-.05h.14l1.05-.07c.53,0,1-.07,1.3-.07s.93,0,1.44-.09a24.3,24.3,0,0,0,3.68-.61c.63-.14,1.28-.3,1.95-.49s1.1-.3,1.66-.46l.79-.23c.58-.19,1.16-.38,1.74-.59.75-.25,1.49-.51,2.26-.79l.28-.09c1.44-.53,2.93-1.09,4.44-1.7,5.64-2.23,11.85-5,18.3-7.68v0a2.07,2.07,0,0,0,.3-.12c2.79-1.18,5.65-2.37,8.51-3.51l2.45-1c1.39-.53,2.81-1.07,4.21-1.58s2.82-1,4.24-1.51h0c.77-.26,1.51-.52,2.28-.77s1.4-.44,2.09-.65,1.35-.42,2-.61c.86-.25,1.7-.49,2.56-.7l2.09-.51.82-.21,2.46-.51h0c.79-.16,1.56-.3,2.33-.4,1.23-.23,2.44-.37,3.63-.48a2.48,2.48,0,0,1,.46,0l1-.09c.21,0,.42,0,.63,0,.74-.05,1.49-.07,2.21-.07,5.91,0,11.15,1.32,15.27,4.56a20.93,20.93,0,0,1,1.58,1.39c1.86,1.82,3.65,3.56,5.4,5.22l1.56,1.49c.21.18.39.37.58.53s.56.51.84.79c0,0,.07,0,.09.07l0,0s0,0,0,0c1.07,1,2.11,2,3.14,2.88a.22.22,0,0,0,.09.07l.14.14c1.75,1.59,3.42,3,5,4.45.16.14.3.25.44.39.74.63,1.47,1.24,2.19,1.82,1.67,1.42,3.28,2.72,4.81,3.91.61.49,1.19.93,1.75,1.35l.14.07c.3.25.63.49.93.72a3.29,3.29,0,0,0,.33.23c.9.68,1.77,1.31,2.6,1.86,1.86,1.31,3.61,2.4,5.19,3.33.4.24.79.47,1.17.68s.74.42,1.11.6c1.12.58,2.14,1.1,3.12,1.49.65.28,1.26.51,1.84.72l.54.19c6.44,2.09,9.54.09,11-2.93v0l0,0a8.71,8.71,0,0,0,.51-1.37c.28-10.34.38-19.57.35-27.28v-1.65c0-2.28,0-4.4,0-6.38l0-.69a154.52,154.52,0,0,0-1.45-18,9.77,9.77,0,0,0-.16-1.16c-.07-.58-.16-1.14-.25-1.73l-.21-1.39c-.19-1.1-.38-2.19-.59-3.28,0-.19-.07-.37-.09-.56-.23-1.21-.46-2.42-.74-3.63-.33-1.61-.7-3.19-1.1-4.77-.3-1.28-.65-2.63-1-4-.16-.7-.35-1.42-.53-2.17q-.42-1.63-.84-3.42l-.56-2.16c-.26-1-.51-2-.79-3.1a2,2,0,0,1-.12-.39c-2.35-9.08-5.19-19.29-8.4-29-.16-.48-.32-1-.49-1.46-.42-1.3-.88-2.61-1.32-3.89a167.28,167.28,0,0,0-6.94-17c-.35-.69-.67-1.37-1-2-.77-1.47-1.54-2.86-2.33-4.14-.63-1-1.28-2-1.91-2.89-1.42-2-3.91-6.19-6.79-11.31-1.24-2.16-2.54-4.51-3.87-6.93h0a1.77,1.77,0,0,0-.12-.24s0,0,0,0c-.37-.7-.77-1.38-1.14-2.07-.19-.35-.37-.7-.58-1a10.6,10.6,0,0,0-.54-1c-.11-.23-.23-.44-.37-.68-.05-.07-.07-.14-.12-.21a1.86,1.86,0,0,0-.23-.41c-.44-.82-.88-1.66-1.32-2.47s-.91-1.65-1.33-2.47h0l-.4-.74s0,0,0,0c-.33-.62-.65-1.25-1-1.86s-.79-1.44-1.16-2.12l-1.7-3.18c1.44-.45,2.86-.82,4.3-1.17q1.71-.37,3.42-.63c.19,0,.4-.09.59-.11h.07c1.48-.21,2.93-.35,4.37-.42.33.44.65.91,1,1.37l3.12,4.35q1.95,2.73,4,5.64l4.91,6.93a1.57,1.57,0,0,0,.17.21,8.6,8.6,0,0,0,.65.93c.81,1.19,1.65,2.37,2.49,3.58,3.67,5.24,7.23,10.41,10.4,15.11,1.21,1.79,2.37,3.51,3.42,5.14h0c5,7.56,8.29,13.15,8.29,14.57,0,.32,0,.79.07,1.42a3.28,3.28,0,0,1,0,.46c.14,1.26.4,3,.8,5,.11.68.25,1.38.41,2.1.05.3.12.58.19.88a1.09,1.09,0,0,0,.05.17c.07.32.16.67.23,1a84.87,84.87,0,0,0,6.19,17.73c.16.35.35.7.54,1a17.62,17.62,0,0,0,1,1.79l.07.14a17.17,17.17,0,0,0,1,1.61l.1.16c.32.51.65,1,1,1.49s.77,1.07,1.19,1.58l.14.19c.35.42.7.84,1.09,1.25A22,22,0,0,0,458.7,735l.18.12.31.2a15.33,15.33,0,0,0,4.19,2.08c4.44,1.42,9.7.83,15.82-2.82a.1.1,0,0,0,.07,0c5.1-3.26,10.33-6.73,15.61-10.41,0,0,0,0,.05,0h0c.38-.25.75-.51,1.12-.79,0,0,0,0,0,0,1.53-1.05,3.09-2.12,4.63-3.21.18-.14.37-.28.58-.42l6.33-4.54c.14-.09.25-.19.39-.28,2-1.42,4-2.86,5.91-4.33,5.57-4.07,11.11-8.26,16.55-12.47,0,0,0,0,.07-.05.33-.26.68-.51,1-.77l1.21-.28.09,0c.77-.16,1.59-.35,2.38-.54,2.49-.58,5-1.18,7.68-1.83l4-1c.26-.07.52-.12.75-.19s.37-.09.56-.16c.46-.1.9-.21,1.35-.35,1.63-.42,3.23-.84,4.81-1.28l1-.28c1.21-.33,2.39-.68,3.58-1,0,0,0,0,.05,0l.14,0,1.81-.51,1.56-.47.28-.07.54-.19,3-.9c.46-.14.9-.31,1.37-.45,2.14-.67,4.21-1.37,6.24-2.07.53-.18,1-.37,1.55-.56,1.28-.44,2.54-.9,3.77-1.34,2.17-.8,4.24-1.61,6.26-2.42.73-.31,1.45-.59,2.17-.89Z"/><path class="cls-8" d="M401.78,1311.17c7.33-1.38,14.46,54.1,12.14,66.85-4.22,18-12.91,32.51-25.92,45-18.27,17.52-46.15,31.47-72.45,42,7.76-23.29,0-45.76,15.42-89.87,5.94-13.82,14-35,20.43-53.18,52.88-150.86,11.88-206.69,91.35-252-4.94,69.15-27.18,140.5-36.37,189-.59,3.18-1.06,6.41-1.4,9.67a289.82,289.82,0,0,0-16.67,34c-18.1,43.6-7.15,33.85-16.95,80.19-4.18,19.72-10.3,30.49-16,36.35,26.32-15.19,33-36.37,33.78-55.94.9-22.72,1.6-27.41,9.84-43.37C400.1,1317.72,400.44,1314.69,401.78,1311.17Z"/><path class="cls-9" d="M476.64,909c-3.52,48.95-19.89,106-31.27,163.36h0q-1.12,5.65-2.22,11.27c-2.26,1.34-5.18,1.85-7,3.8-24.12,26.27-35.61,27.45-46.53,87.41-19.5,107-54.12,197.42-54.12,197.42l1.89-16,.25-2.23-1.4-38.34a63.33,63.33,0,0,1,10.21-36.87h0S397.73,1086,418,1043.66s14.34-39.05,37.73-94.23C478.47,895.71,473.2,904.37,476.64,909Z"/><path class="cls-10" d="M432.94,1450.08a30,30,0,0,1-8.5,11.31c-.44.38-.88.75-1.35,1.1-24,19.48-64.25,30.39-99.65,31.55a172.05,172.05,0,0,1-22.48-.65c-.35,0-.67-.07-1-.09,0,0,58-6.54,87.9-35.86a63.88,63.88,0,0,0,8.84-10.64c4.59-7,8.22-13.1,11.06-18.38,11.1-20.71,10.33-29,10-30.72a.1.1,0,0,1,0-.07.47.47,0,0,1-.05-.16.22.22,0,0,1,0-.1c.14.14.74.89,1.67,2.12.16.21.35.44.51.68,1.35,1.79,3.15,4.35,5,7.44.26.4.49.79.72,1.19.56.93,1.12,1.91,1.65,2.91.28.49.54,1,.82,1.53s.53,1,.79,1.59.54,1.07.77,1.6a66.37,66.37,0,0,1,3.42,8.78,53.42,53.42,0,0,1,1.35,5.3c.25,1.26.44,2.52.58,3.77.07.49.09,1,.14,1.47,0,.11,0,.23,0,.35A30.93,30.93,0,0,1,432.94,1450.08Z"/><path class="cls-11" d="M549.09,695.51c-2.87,12.31-6.1,25.06-9.68,37.93a249.21,249.21,0,0,0-19.49,24.61c-5.17,7.65-11.52,25.42-18.58,50.17-4.25,14.87,1.32,27.94-13.41,51.4-49.74,77.65-40.76,103.2-72.05,140.39-3.18-14.33,7.59-25.35,10.53-38.63,9.63-23.91,20.86-56.64,33.25-101.3,14.09-50.8,32-100.25,49.2-142.94,7.9-5.69,15.82-11.65,23.54-17.61q7.23-1.63,15.38-3.68C548.23,695.74,548.66,695.64,549.09,695.51Z"/><path class="cls-12" d="M232.57,787.53c.3,2.1,4,40.63,19.43,44.32s34.34-10.25,44.29-4.44,31-2.37,31-2.37-30.67-15.38-53.85-8S232.57,787.53,232.57,787.53Z"/><path class="cls-13" d="M380.17,827.72c5.25,4.69-32.53-28.92-60.4-23.53-27.28,5.26-24.65,10.4-24.65,10.4s24.09-.27,42.94-1.2S373.41,821.14,380.17,827.72Z"/><path class="cls-14" d="M436.4,900.92s4.26-24.82-12.58-40.84S396.23,835.33,386.53,820s-6.95-16.25-17.44-26c-9-8.38-11.76-3.56-11.76-3.56s10.08-1.37,16.18,15.45,6.71,17.1,14.68,31.1,25,26,27.69,28.51C433.55,882,436,906,436.4,900.92Z"/><path class="cls-15" d="M447.86,901.57c3.5-32.31,8.59-68.66-6.06-78.16-8.38-5.43.67,5.36-15,1.58s-25-16.57-25-16.57,35.16,30.21,35,32C436.45,846.42,445.71,852.75,447.86,901.57Z"/><path class="cls-16" d="M281.88,812.16C274.67,815,268.45,817,264,817.07c-2.84.07-13.12,1.91-27.39-6.89a140.34,140.34,0,0,1-15.78-26.6c5.56.12,11.27,0,17.13-.28C256.79,807.32,272.92,811.63,281.88,812.16Z"/><path class="cls-16" d="M404.82,830.59c-6.49-2.09-16.4-8.38-31.44-22a17.85,17.85,0,0,0-3.18-2.93c-1-1-2.05-1.91-3.1-2.91-1.74-1.65-3.54-3.4-5.38-5.24-4.32-4.26-10.12-5.95-16.82-5.95,16.59-5.66,32.35-8.08,41.47.9,1.86,1.82,3.65,3.56,5.4,5.22,1.05,1,2.07,2,3.09,2.91a17.15,17.15,0,0,1,3.19,2.93,181.87,181.87,0,0,0,18.43,15c0,2.49-.11,5.08-.18,7.73a9.43,9.43,0,0,1-.54,1.4C410.18,824.54,416,832.41,404.82,830.59Z"/><path class="cls-16" d="M589.86,679.54c-17.62,16.38-35,33.53-49.22,49.36-.4,1.51-.79,3-1.24,4.53a246.17,246.17,0,0,0-19.47,24.62c-5.17,7.64-11.52,25.42-18.6,50.18-4.23,14.85,1.33,27.92-13.4,51.38-.77,1.21-1.47,2.35-2.21,3.52q-4.26,17.63-8.61,37c-.52,2.24-1,4.52-1.54,6.78a8.71,8.71,0,0,0,1.07,2.07c-1.75,24.48-6.73,51-12.68,78.52s-12.9,56.15-18.6,84.85c-.76,3.76-1.49,7.51-2.23,11.26a15.73,15.73,0,0,1-1.65.81c-6.71,64.54-26.56,129.44-35.1,174.56-.6,3.17-1.07,6.4-1.39,9.68-.63,1-1.24,2.15-1.87,3.26a261.71,261.71,0,0,0-2.07,41.45c.21-.7.45-1.42.73-2.17,7.33-1.37,14.45,54.11,12.14,66.84-.37,1.58-.81,3.1-1.25,4.63,1.53,5,3.21,9.94,4.95,14.69a.58.58,0,0,1,.05.14.25.25,0,0,1,0-.12c.49.58,16.26,19.45,17.47,38.75,20.85,38.67,41.12,58.41,41.12,58.41-6.72-1.63-15.54.07-29.36-.19a297.61,297.61,0,0,1-36.42-53.17c-1.21-19.27-17-38.15-17.48-38.73a.25.25,0,0,0,0,.12s0-.09,0-.14c-1.75-4.75-3.43-9.66-5-14.68.44-1.54.88-3,1.26-4.64,2.32-12.75-4.82-68.23-12.13-66.86-.3.77-.51,1.47-.74,2.19a258.69,258.69,0,0,1,2.09-41.47c.61-1.09,1.23-2.19,1.84-3.26.35-3.25.81-6.49,1.4-9.68,8.56-45.1,28.39-110,35.09-174.53a16.9,16.9,0,0,0,1.65-.82c.75-3.77,1.47-7.52,2.24-11.29h0C432.1,1020,448.46,963,452,914A8.9,8.9,0,0,1,450.9,912c.51-2.28,1-4.54,1.54-6.8q4.37-19.29,8.61-36.95c.74-1.16,1.44-2.33,2.21-3.51,14.73-23.46,9.17-36.54,13.43-51.41,7.05-24.74,13.4-42.52,18.57-50.18a245,245,0,0,1,19.5-24.59c.42-1.52.81-3,1.23-4.54,12.52-14,27.58-29,43.08-43.64A264.77,264.77,0,0,0,589.86,679.54Z"/><path class="cls-16" d="M281.88,812.16c18.8-7.4,44.31-20.59,63-20.59-21.65,7.37-44.71,20.24-56.25,20.45A54.3,54.3,0,0,1,281.88,812.16Z"/><path class="cls-16" d="M565.19,684.61c-2.05,1.91-4.1,3.82-6.12,5.72-3.05.89-6.19,1.75-9.47,2.59-.45.14-.89.25-1.35.35s-.86.23-1.31.35c-5.44,1.35-10.54,2.58-15.38,3.67-7.73,6-15.64,11.92-23.53,17.62-4.39,3.19-8.79,6.28-13.15,9.28a40.2,40.2,0,0,0-9,2.12c-7.89,2.91-20.13,7.84-22.5,11.1a18.47,18.47,0,0,1-7-4.23c1.7-.65,3.33-1.28,4.79-1.82a38.64,38.64,0,0,1,9-2.09c4.35-3,8.75-6.1,13.15-9.31,7.88-5.68,15.82-11.64,23.52-17.59,4.84-1.12,10-2.33,15.39-3.7.46-.1.88-.21,1.32-.33l1.33-.35A286.72,286.72,0,0,0,565.19,684.61Z"/><path class="cls-17" d="M446.53,882.55s28.13-57.79,22.77-87.84-4.1-22.17-15.14-41.09.13-24.84-9.1-44.81c-6.46-14-2,8.93-4.78,26.52s-4.1,5.69,3.79,22.71,17.66,16.58,18.92,36.67S449.51,874.29,446.53,882.55Z"/><path class="cls-18" d="M442.16,796.12c4.11,15.53.19,8.52,8.84,28.87s0,35.09,0,35.09,7.38-16.59,3.85-43.39-11.27-58.5-14.65-50.54S442.16,796.12,442.16,796.12Z"/><path class="cls-19" d="M499.36,723.92s-14.36,12.7-17.17,24.51,2.06,33-6.58,46.32,7.81-17.62,2.32-29.85-8.05-21.56-14.22-25.4c-4.42-2.74,12.33-9.55,22.19-13.19a38.89,38.89,0,0,1,13.46-2.39Z"/><path class="cls-20" d="M434.87,742.29c3.26-1.59.93-35.86-1.32-50s-17.27-28.54-18.2-30.12-16.05-5.5-16.05-5.5-1,1.35,2.63,8c2,3.73,3.53,8.3,9.33,12.58,2.29,1.7,11.42,4.46,13.6,15s-3.65,20.9,0,25.63C430.49,725.21,434.87,742.29,434.87,742.29Z"/><path class="cls-21" d="M443.4,862.71S413,839.53,401,826.65s-1.11-16.26-6.49-21.49-1.83-10.12,7.33,3.26c1.23,1.8,4.15,14.81,5.69,18.23C410.07,832.31,434.16,846.58,443.4,862.71Z"/><path class="cls-22" d="M383.39,810.25c-21.83-20.34-80.36,18.85-101.58,19.2-4.12.07-23.25,3.56-47.68-22.55a131.51,131.51,0,0,1-8.73-14.12,6.24,6.24,0,0,1,5.33-9.2c1.33,0,2.67-.07,4-.14a6.42,6.42,0,0,1,5.17,2.33c24.83,30.16,44.57,26.32,48.71,26.25,20.41-.37,76.73-40.26,97.74-19.55,1.86,1.82,3.65,3.56,5.4,5.22,1,.93,1.91,1.81,2.81,2.67a6.69,6.69,0,0,0,.56.44,19.35,19.35,0,0,1,2.73,2.52,2.4,2.4,0,0,0,.39.39c14.48,13.11,24.18,19.37,30.65,21.62a7.68,7.68,0,0,0,1.21.31c10.26,1.42,4.84-6.1,10.31-3,0,0,0,0,0-.05,0,4.91-.16,10.24-.32,15.9a14.39,14.39,0,0,1-.56,1.39c-5.7-3-.05,4.38-10.71,3a5.56,5.56,0,0,1-1.25-.28c-6.73-2.21-16.83-8.38-31.86-21.22-.14-.12-.28-.26-.42-.4a18.39,18.39,0,0,0-2.82-2.47c-.21-.16-.39-.27-.58-.44-.95-.86-1.93-1.72-2.93-2.63C387.18,813.74,385.32,812.05,383.39,810.25Z"/><path class="cls-22" d="M568.7,699.71q-6,5.91-11.7,11.76c-1.33.34-2.66.69-4,1-.46.12-.93.23-1.39.32l-1.35.35c-5.14,1.21-10,2.31-14.64,3.31a7,7,0,0,0-2.47,1.12c-7.65,5.58-15.5,11.14-23.34,16.47-4.14,2.84-8.28,5.63-12.4,8.31a6.63,6.63,0,0,1-2.79,1,42.61,42.61,0,0,0-7.8,1.87c-6.52,2.28-15.94,5.84-20.74,8.79a6.66,6.66,0,0,1-7,.12c-4.14-2.61-7.49-6.84-10.15-11.64a6.39,6.39,0,0,1-.69-2.18,39.06,39.06,0,0,0-3.84-12.27,25.18,25.18,0,0,0-1.8-3.21,5.48,5.48,0,0,1-.95-2,51.86,51.86,0,0,1-1.58-9.65c.07-3.56-23.3-34.86-38.91-55.46-.38-.46-.7-.91-1-1.35a2.72,2.72,0,0,0-.49,0c-2-3.68-4.09-7.5-6.05-11.1a6.2,6.2,0,0,1,4.45-9.1h.07c1.48-.21,2.93-.35,4.37-.42.33.44.65.91,1,1.37,15,21,37.47,52.78,37.47,56.46a56.09,56.09,0,0,0,1.51,9.84,5.75,5.75,0,0,0,.91,2,27.19,27.19,0,0,1,1.72,3.28,41.19,41.19,0,0,1,3.72,12.5,6.2,6.2,0,0,0,.66,2.21c2.56,4.89,5.77,9.19,9.75,11.84a6.13,6.13,0,0,0,6.75-.11c4.6-3,13.68-6.61,20-8.94a37.36,37.36,0,0,1,7.5-1.91,6.34,6.34,0,0,0,2.7-1c3.95-2.73,7.93-5.57,11.93-8.45,7.54-5.45,15.08-11.1,22.46-16.8a6.46,6.46,0,0,1,2.37-1.12c4.45-1,9.13-2.14,14.08-3.37.45-.12.89-.21,1.31-.35s.9-.21,1.35-.35q6.79-1.75,13-3.61A6.22,6.22,0,0,1,568.7,699.71Z"/><path class="cls-22" d="M390.86,665.81a6.05,6.05,0,0,1,4.61-8.94h.09a37.85,37.85,0,0,1,4.05-.37,1.12,1.12,0,0,1,.16.28l-.46-.12s-1,1.35,2.63,8c2,3.72,3.51,8.3,9.33,12.59a12.24,12.24,0,0,0,1.07.65c4.19,6.84,8.1,16.57,11.61,27a6.48,6.48,0,0,1,.26,3c-.68,4.19-1.09,7.7.65,10,3.31,4.28,6.17,11.89,8,17.48a2,2,0,0,0,.12.39c1.42,5.52,2.68,10.62,3.72,14.9a148.7,148.7,0,0,1,3,15.36,6.87,6.87,0,0,1-.11,2.39c-1.35,6.59.58,18,1.76,23.88v1.58c0,7.71-.07,16.94-.35,27.28a8.71,8.71,0,0,1-.51,1.37c.05-3.91.05-7.54.05-10.89v-1.56c-1.26-5.82-3.26-17-1.86-23.46a6.41,6.41,0,0,0,.14-2.35,144.52,144.52,0,0,0-3.1-15.08c-1.09-4.19-2.39-9.19-3.88-14.61-.05-.14-.07-.26-.12-.4-1.89-5.49-4.86-13-8.31-17.17-1.79-2.21-1.37-5.66-.67-9.8a5.72,5.72,0,0,0-.26-2.93c-3.63-10.29-7.73-19.83-12.08-26.56a6.64,6.64,0,0,1-1.09-.65c-6-4.21-7.61-8.7-9.71-12.35-3.77-6.54-2.74-7.87-2.74-7.87l.49.12C395.14,673.28,392.93,669.44,390.86,665.81Z"/><path class="cls-23" d="M871.79,732.06c-2.75,37.12-90.09,45.38-123.65,42.65s16.37-19.27-5.56-41.27-42.7-1.38-82.58,0c-4.77.17-11.32-1.23-19.25-3.85-17.81-5.9-42.53-18-69.28-32.55h0l-1-.53c-3.72-2-7.48-4.09-11.27-6.2h0l-.05,0-3.4-1.88c-29.85-16.74-61-35.46-87.14-51.29-1.88-1.12-3.72-2.24-5.53-3.33l-11.77-7.14c-15.89-9.61-28.81-17.35-36.8-21.73,0,0,16.25,1.65,42,4.19l1.81.17c7.19.71,15.06,1.49,23.5,2.3l20.2,2c2.51.23,14.76-4.92,17.33-4.68C586.08,615.22,664,628.68,724.29,633c28.65,2,51.11,3.19,62.23,2.93.77,0,1.53,0,2.27,0a4.7,4.7,0,0,0,.53,0c50.15-.63,32.17,15.37,63.88,30.21h0C885.53,681.12,874.53,694.93,871.79,732.06Z"/><path class="cls-24" d="M349.35,557.88c-30.41-6.3-67.34-2.54-95,36.65C197.92,674.3,193.8,714.05,119.54,721.68c-47.13,4.84-57.89,28.49-59.46,45.13L31.8,770.93S114,814.57,151.17,817.78c13.24,1.14,19.44-2.88,25.64-10.56a63.23,63.23,0,0,1,42.46-23.47l1.53-.17c61.7-6.83,70.64,0,87.14-21.27s34.38-18,26.13-40.63-27.51-51.51,9.63-59.76c9.55-2.12,18.26-8.47,25.94-16.71,8.59,4.51,18,8.17,28.83,9.21C433.33,657.77,453,637.17,519.72,622L360.2,545S355.65,550.21,349.35,557.88Z"/><path class="cls-3" d="M345,439.4s10.95-20.69,37.42-5.93S412.06,456,412.06,456a45.41,45.41,0,0,1-36.3,7.39C354.08,458.81,345,439.4,345,439.4Z"/><path class="cls-3" d="M481.1,449.72s8.92-17.1,30.28-5,23.91,18.51,23.91,18.51a36.35,36.35,0,0,1-29.37,6.2C488.4,465.71,481.1,449.72,481.1,449.72Z"/><path class="cls-25" d="M424.88,387.2s-15.89-10.95-1.25-30.66,21.31-21.45,21.31-21.45A36.36,36.36,0,0,1,447.49,365C441.64,381.93,424.88,387.2,424.88,387.2Z"/><path class="cls-3" d="M486,446.16s-12-16.32,8.83-29.59,28-12.44,28-12.44a35.64,35.64,0,0,1-7.31,29.37C504.19,447.39,486,446.16,486,446.16Z"/><path class="cls-3" d="M196.73,659.43s11-20.69,37.43-5.93S263.81,676,263.81,676a45.36,45.36,0,0,1-36.3,7.39C205.83,678.84,196.73,659.43,196.73,659.43Z"/><path class="cls-3" d="M198.33,707.53s10.95-20.69,37.42-5.93,29.65,22.54,29.65,22.54a45.33,45.33,0,0,1-36.29,7.39C207.43,726.94,198.33,707.53,198.33,707.53Z"/><path class="cls-3" d="M189,697.34s22.7-5.72,29.47,23.82,3.11,37.12,3.11,37.12a45.38,45.38,0,0,1-29.79-22C180.69,717.09,189,697.34,189,697.34Z"/><path class="cls-3" d="M269.29,544.24s10.95-20.69,37.42-5.93,29.66,22.54,29.66,22.54a45.36,45.36,0,0,1-36.3,7.39C278.39,563.65,269.29,544.24,269.29,544.24Z"/><path class="cls-3" d="M308.65,542.32s-1.37-23.37,28.92-24.48,37,3.89,37,3.89a45.34,45.34,0,0,1-27.2,25.14C326.49,554.19,308.65,542.32,308.65,542.32Z"/><path class="cls-3" d="M213.56,493.25s-1.37-23.37,28.92-24.47,37,3.89,37,3.89a45.38,45.38,0,0,1-27.21,25.14C231.41,505.13,213.56,493.25,213.56,493.25Z"/><path class="cls-3" d="M539.29,489.87s-1.37-23.37,28.92-24.47,37,3.89,37,3.89a45.38,45.38,0,0,1-27.2,25.14C557.13,501.75,539.29,489.87,539.29,489.87Z"/><path class="cls-26" d="M546.21,357.06s-1.37-23.37,28.92-24.48,37,3.9,37,3.9A45.37,45.37,0,0,1,585,361.61C564.05,368.93,546.21,357.06,546.21,357.06Z"/><path class="cls-27" d="M551.6,361.3s-17.05-16.05,4.21-37.66S585.42,301,585.42,301A45.37,45.37,0,0,1,582.9,338C572.72,357.68,551.6,361.3,551.6,361.3Z"/><path class="cls-28" d="M518.69,351s-21.84,8.43-32.12-20.09S479,294.48,479,294.48a45.35,45.35,0,0,1,32.23,18.26C524.57,330.43,518.69,351,518.69,351Z"/><path class="cls-3" d="M377.14,633.46s-3.26-22.63,19.49-20.81S425,619.93,425,619.93s-3.05,16.56-18.14,21.61S377.14,633.46,377.14,633.46Z"/><path class="cls-3" d="M214.18,485.4s18.6-8.7,29.32,15.62,8.84,31.45,8.84,31.45a39.79,39.79,0,0,1-29.3-14C210.29,503.79,214.18,485.4,214.18,485.4Z"/><path class="cls-3" d="M530.82,488.65s18.6-8.7,29.32,15.62S569,535.72,569,535.72a39.82,39.82,0,0,1-29.31-14C526.93,507,530.82,488.65,530.82,488.65Z"/><path class="cls-3" d="M459.75,570.65s20.47-1.57,21.92,25-2.82,32.55-2.82,32.55a39.78,39.78,0,0,1-22.48-23.46C449.62,586.49,459.75,570.65,459.75,570.65Z"/><path class="cls-6" d="M385.06,726.4s20.47-1.58,21.92,25-2.83,32.54-2.83,32.54a39.78,39.78,0,0,1-22.47-23.45C374.93,742.23,385.06,726.4,385.06,726.4Z"/><path class="cls-6" d="M377.58,729.72s15,11,.28,30.15-21.22,20.7-21.22,20.7a36.12,36.12,0,0,1-1.56-29.44C361.23,734.61,377.58,729.72,377.58,729.72Z"/><path class="cls-3" d="M369.73,640.2s18.6-8.69,29.32,15.63,8.85,31.45,8.85,31.45a39.81,39.81,0,0,1-29.31-14C365.84,658.6,369.73,640.2,369.73,640.2Z"/><path class="cls-3" d="M151,633.48s-17.59-10.57-3.4-33.05,21.15-24.89,21.15-24.89a39.79,39.79,0,0,1,4.74,32.14C168.4,626.44,151,633.48,151,633.48Z"/><path class="cls-3" d="M141.43,629.38s.54-20.53,27.09-19.23,32.08,6.17,32.08,6.17A39.76,39.76,0,0,1,175,636.25C156.13,641.09,141.43,629.38,141.43,629.38Z"/><path class="cls-3" d="M323.67,436.9s-9.06-21.59,19.14-32.7,36.24-8.63,36.24-8.63a45.36,45.36,0,0,1-17.31,32.75C344.44,442.17,323.67,436.9,323.67,436.9Z"/><path class="cls-3" d="M244.78,414.66S230.56,396.07,255,378.18s32.86-17.53,32.86-17.53a45.36,45.36,0,0,1-8.45,36.07C266.22,414.5,244.78,414.66,244.78,414.66Z"/><path class="cls-3" d="M251,430.22s-23.41-.22-22.45-30.52S235,363,235,363a45.35,45.35,0,0,1,23.23,28.85C264.08,413.22,251,430.22,251,430.22Z"/><path class="cls-29" d="M164.24,469.41s-23.4-.22-22.45-30.52,6.4-36.69,6.4-36.69a45.35,45.35,0,0,1,23.23,28.85C177.3,452.41,164.24,469.41,164.24,469.41Z"/><path class="cls-30" d="M173.57,459.2s-15.51,17.53-37.76-3.05-23.51-28.9-23.51-28.9a45.36,45.36,0,0,1,37,1.38C169.3,438.19,173.57,459.2,173.57,459.2Z"/><path class="cls-3" d="M221.8,427.59s-11.9,13.45-29-2.34-18-22.16-18-22.16a34.78,34.78,0,0,1,28.39,1.05C218.52,411.48,221.8,427.59,221.8,427.59Z"/><path class="cls-3" d="M120.32,691.5s-.63,17.94-23.84,16.61-28-5.63-28-5.63a34.8,34.8,0,0,1,22.58-17.25C107.55,681.15,120.32,691.5,120.32,691.5Z"/><path class="cls-3" d="M115.86,693s13.17,12.21-3,28.91-22.58,17.51-22.58,17.51A34.79,34.79,0,0,1,92,711C99.68,695.85,115.86,693,115.86,693Z"/><path class="cls-31" d="M500.86,497.87C464.69,549,447.64,491,447.64,491s-40.29,43.13-73.52,58.57c-1.25.58-2.5,1.13-3.73,1.63-33.87,13.75-34.77,3.91-48.18.08-13.15-3.75-25.68,27.28-65.84,47.57-.76.4-1.54.78-2.33,1.16-42,20.25-34.71,9.08-65.42-16s8.4-66.78,8.4-66.78-41.84-13-35-34.51c2-6.34,6-15.62,8.55-25.53,40.53-17.48,27.21-74.59,63.24-82.66,41.2-9.2,36.61-34.92,64.78-31.39s35.69-7.59,70.9,17.84c33.9,24.48,49,23.06,71.83,10.09,19.93,3.08,48.93.8,62.46,9.56,24.65,16,18.9,31.61-8.27,54.69S537,446.8,500.86,497.87Z"/><path class="cls-32" d="M202.18,574.63s-22.28,7.2-12.33,35.83,17.07,33.11,17.07,33.11a45.41,45.41,0,0,0,13.56-34.47C219.71,587,202.18,574.63,202.18,574.63Z"/><path class="cls-33" d="M188.77,710.48s-18.4,5.82-10.18,28.95,14.09,26.75,14.09,26.75a36.32,36.32,0,0,0,11.2-27.85C203.25,720.44,188.77,710.48,188.77,710.48Z"/><path class="cls-34" d="M136.93,644.27s-8-17.54-30-6.53S82.13,655,82.13,655a36.34,36.34,0,0,0,29,7.68C128.83,659.87,136.93,644.27,136.93,644.27Z"/><path class="cls-35" d="M184.41,714.68s-14-14.66-30.67,3.57-17.1,25.39-17.1,25.39a35.64,35.64,0,0,0,30.19-2.11C182.47,732.81,184.41,714.68,184.41,714.68Z"/><path class="cls-36" d="M444.56,466.74s-22.27,7.2-12.32,35.83,17.06,33.11,17.06,33.11a45.37,45.37,0,0,0,13.56-34.47C462.1,479.06,444.56,466.74,444.56,466.74Z"/><path class="cls-37" d="M491.66,476.64s-22.27,7.2-12.32,35.83,17.06,33.11,17.06,33.11A45.34,45.34,0,0,0,510,511.11C509.2,489,491.66,476.64,491.66,476.64Z"/><path class="cls-38" d="M483.24,465.7s-9.57,21.37,18.36,33.14,36,9.5,36,9.5a45.36,45.36,0,0,0-16.52-33.15C504.13,460.93,483.24,465.7,483.24,465.7Z"/><path class="cls-39" d="M318.55,518.24s-22.28,7.2-12.33,35.83,17.06,33.11,17.06,33.11a45.37,45.37,0,0,0,13.57-34.47C336.08,530.56,318.55,518.24,318.55,518.24Z"/><path class="cls-40" d="M309.83,556.67s-22.78-5.4-29.12,24.25-2.58,37.15-2.58,37.15a45.34,45.34,0,0,0,29.47-22.43C318.43,576.3,309.83,556.67,309.83,556.67Z"/><path class="cls-41" d="M278,454.53s-22.78-5.4-29.11,24.24-2.59,37.16-2.59,37.16a45.38,45.38,0,0,0,29.47-22.44C286.59,474.16,278,454.53,278,454.53Z"/><path class="cls-3" d="M180.91,830.37s-17.13-5.8-24.15,16.54-4.69,28.39-4.69,28.39a35.06,35.06,0,0,0,24.3-15.12C186.1,846.1,180.91,830.37,180.91,830.37Z"/><path class="cls-3" d="M221,805.86s-17.34,5.14-10.2,27.44,12.56,25.9,12.56,25.9a35.08,35.08,0,0,0,11.12-26.37C234.3,815.71,221,805.86,221,805.86Z"/><path class="cls-3" d="M175.83,835s-7.74-22.1-36.12-11.45S107,841.4,107,841.4a45.39,45.39,0,0,0,34.79,12.72C163.94,852.81,175.83,835,175.83,835Z"/><path class="cls-42" d="M86.22,758.55s-22.78-5.4-29.11,24.24S54.52,820,54.52,820A45.34,45.34,0,0,0,84,797.51C94.83,778.18,86.22,758.55,86.22,758.55Z"/><path class="cls-43" d="M89.46,764.59S76.61,745,51.65,762.22s-27.4,25.24-27.4,25.24a45.38,45.38,0,0,0,36.84,3.92C82.24,784.77,89.46,764.59,89.46,764.59Z"/><path class="cls-44" d="M85.06,730.41s12.08-20.06-14.22-35.12-34.6-13.78-34.6-13.78a45.36,45.36,0,0,0,12.39,34.9C63.75,732.62,85.06,730.41,85.06,730.41Z"/><path class="cls-45" d="M387.73,639.92s-21.72-7.14-23.87,15.59,2.27,29.17,2.27,29.17,16.83-.13,24.42-14.12S387.73,639.92,387.73,639.92Z"/><path class="cls-46" d="M270.14,453.77s-11.79,16.81,10.31,31.59,29.44,14.15,29.44,14.15a39.8,39.8,0,0,0-8.73-31.29C288.92,453.13,270.14,453.77,270.14,453.77Z"/><path class="cls-47" d="M218.49,766.19S206.7,783,228.8,797.78s29.44,14.15,29.44,14.15a39.8,39.8,0,0,0-8.73-31.29C237.27,765.54,218.49,766.19,218.49,766.19Z"/><path class="cls-48" d="M311.56,710.4s-5.09,19.89,20.8,25.92,32.54,2.85,32.54,2.85A39.81,39.81,0,0,0,345.69,713C328.91,703.17,311.56,710.4,311.56,710.4Z"/><path class="cls-49" d="M395.66,633.79S383.87,650.6,406,665.38s29.44,14.15,29.44,14.15a39.8,39.8,0,0,0-8.73-31.29C414.45,633.15,395.66,633.79,395.66,633.79Z"/><path class="cls-50" d="M426.93,417.17s-7.36-19.16-32-9.08-28.18,16.53-28.18,16.53a39.83,39.83,0,0,0,30.83,10.23C417,433.12,426.93,417.17,426.93,417.17Z"/><path class="cls-51" d="M424.55,407.06s-20.31-3-23.64,23.36.52,32.66.52,32.66a39.8,39.8,0,0,0,24.08-21.81C433.53,423.57,424.55,407.06,424.55,407.06Z"/><path class="cls-52" d="M203.41,553.2s-19.7-12.66-35.52,13.2-14.78,34.19-14.78,34.19a45.37,45.37,0,0,0,35.25-11.38C205,574.58,203.41,553.2,203.41,553.2Z"/><path class="cls-53" d="M195.17,471.66s-15.84-17.23-37.7,3.77-23,29.33-23,29.33a45.37,45.37,0,0,0,37-2.08C191.3,492.74,195.17,471.66,195.17,471.66Z"/><path class="cls-54" d="M209.41,480.5s3.84-23.09-26.16-27.4S146,453,146,453a45.34,45.34,0,0,0,24.39,27.88C190.41,490.42,209.41,480.5,209.41,480.5Z"/><path class="cls-55" d="M263,401.82s3.84-23.09-26.16-27.4-37.25-.05-37.25-.05A45.36,45.36,0,0,0,224,402.25C244,411.74,263,401.82,263,401.82Z"/><path class="cls-56" d="M251.37,409.24s19.95-12.24,3.54-37.72-24.39-28.16-24.39-28.16a45.36,45.36,0,0,0-5.06,36.69C231.42,401.39,251.37,409.24,251.37,409.24Z"/><path class="cls-57" d="M211.88,451.26s15.31-9.39,2.72-28.93-18.7-21.6-18.7-21.6A34.77,34.77,0,0,0,192,428.87C196.59,445.24,211.88,451.26,211.88,451.26Z"/><path class="cls-58" d="M489.38,397s17.79,2.49,20.5-20.6-.7-28.56-.7-28.56a34.82,34.82,0,0,0-20.9,19.25C481.4,382.66,489.38,397,489.38,397Z"/><path class="cls-59" d="M491.59,392.9s9.74,15.08,29,2,21.15-19.2,21.15-19.2a34.8,34.8,0,0,0-28.22-3.22C497.25,377.46,491.59,392.9,491.59,392.9Z"/><path class="cls-60" d="M835.15,564.1c-13.72-22.44,5.06-55.56-37.59-81.77-27.17-16.69-42.84-51.25-93.67-46.47C699.22,413,666.51,386.13,643.2,382c-29.62-5.26-11.06-37-25.61-58.48q-4.4,5.75-8.72,11.57-8.6,11.55-17,23.48A1151.75,1151.75,0,0,0,530,457.33q-3.24,5.76-6.42,11.6c-1.05,1.91-2.1,3.82-3.13,5.75Q514,486.62,507.7,498.9l-1,2q-8.81,17.18-17.34,35-9,18.74-17.64,38.2-4.51,10.1-8.95,20.41c-1.81,4.19-3.6,8.38-5.37,12.62-.28.64-.55,1.29-.81,1.94s-.64,1.47-.94,2.22h-4.29V793.55a8,8,0,0,0,0,.85c0,.2,0,.4,0,.59s0,.51.05.76,0,.25,0,.36c0,.29.08.57.11.85.08.54.14,1.1.26,1.63.06.33.15.65.23,1s.21.91.35,1.37c0,0,0,0,0,.06.11.33.23.66.35,1s.3.88.48,1.31.29.69.44,1,.38.83.58,1.23.37.68.56,1,.45.77.69,1.15.43.66.66,1l.78,1.1.76,1c.28.35.57.7.88,1s.57.62.86.92.63.66,1,1,.62.61.95.91l.16.14c.28.26.58.52.88.78s.69.59,1.06.88.73.59,1.1.87l1.14.86,1.17.8,1.25.83.13.08c.35.22.71.43,1.06.66l1.37.81a3.88,3.88,0,0,0,.45.24l.74.42c.51.28,1,.56,1.53.82.32.17.67.33,1,.5l.52.25c1.37.67,2.78,1.32,4.23,1.93,1.93.81,3.92,1.56,6,2.27l.19.06c1,.33,1.94.65,2.95,1l.49.15c.89.28,1.79.55,2.7.8l.69.18c.57.17,1.14.32,1.72.46.29.09.6.16.89.24l.78.19,2.59.61.33.07.52.12,2.58.53c.31.06.61.13.92.18q1.29.26,2.58.48l.95.16c.88.16,1.74.29,2.63.42l1,.15c.88.13,1.76.26,2.64.37l1,.13,2.66.3,1,.12,2.69.25,1,.09,2.76.21,1,.07c1,.06,1.94.11,2.91.15l.83.05,3.75.13,2.88,0h2.76c1.62,0,3.25,0,4.87-.09.25,0,.51,0,.76,0,1.56,0,3.12-.12,4.66-.21l.91-.05c1.53-.1,3.05-.22,4.56-.34l.91-.09c1.54-.14,3.06-.31,4.57-.49l.79-.08c1.56-.19,3.11-.41,4.64-.65l.57-.08c1.63-.25,3.23-.53,4.82-.82l.21,0c3.47-.65,6.87-1.41,10.14-2.28l.33-.09,2.13-.58c.19-.07.38-.12.58-.18l1.84-.55.75-.24,1.64-.53.84-.29,1.51-.53.9-.33,1.41-.53.92-.37,1.33-.55c.31-.12.61-.26.92-.39l.4-.17.88-.4.9-.42.31-.15h0c.3-.13.61-.28.91-.44l.86-.41,1.22-.65.81-.43c.41-.22.8-.44,1.19-.67s.51-.29.76-.45c.41-.24.8-.48,1.18-.72l.7-.43,1.18-.8.61-.4,1.25-.92.46-.33c.54-.43,1.09-.86,1.61-1.3l.44,6.72h0l2.36-.19c6.69-.51,14.05-.86,22.51-.81,10.39.07,18.05-1.14,24.31-3.26.92-.32,1.84-.66,2.71-1,7.87-3.18,13.55-7.91,20.23-13.23l1.13-.9,1.14-.9c.78-.6,1.56-1.22,2.37-1.83.41-.3.82-.6,1.23-.92l1.26-.93c.86-.62,1.74-1.24,2.65-1.87s1.85-1.27,2.83-1.89c.73-.48,1.48-1,2.25-1.42s1.57-1,2.39-1.42c1.35-.79,2.79-1.57,4.28-2.36.31-.15.6-.3.9-.47,1.54-.77,3.13-1.55,4.82-2.32s3.45-1.52,5.31-2.28,3.8-1.48,5.84-2.22c1.65-.58,3.35-1.15,5.13-1.72s3.61-1.13,5.51-1.68c1.45-.4,2.92-.81,4.44-1.2,1-.27,2-.53,3.09-.79s2.12-.52,3.21-.77q2.92-.68,5.56-1.51c33.56,2.73,120.9-5.53,123.65-42.65s13.74-50.94-18.57-66a182.8,182.8,0,0,1,19.14-3.39C987.32,648,848.84,586.52,835.15,564.1ZM789.32,729.36h-.53V612.55h.53ZM875.1,1412.1v0l-4.57-133.47-1.38-40.51-.23-6.87a8,8,0,0,0,.41-1.34,19.72,19.72,0,0,0,.36-1.94,25.53,25.53,0,0,0-.94-9.22v0a41.29,41.29,0,0,0-7.29-13.69c-10.92-14-35.45-32-89.27-49.4-3.91-1.28-7.7-2.59-11.32-4A190.06,190.06,0,0,1,723.51,1133c-53.66-34.83-58.94-81.8-98.72-98.57l15.81,237.14-11,4.34,0,0-14.94,5.93.71,26v0l3.9,143.78H876.46l-1.11-32.7Z"/><polygon class="cls-61" points="2136.59 1418.16 2200.44 1426.83 2201.77 1397.56 2139.92 1386.4 2136.59 1418.16"/><path class="cls-62" d="M2200.6,1423.22l.28-6.07s-41.59-10.74-41.81-11.72-4-14.61-4-14.61l-15.17-4.42-2.91,27.74Z"/><polygon class="cls-61" points="2200.67 1439.74 2200.44 1426.83 2201.22 1390.6 2207.32 1392.41 2205.8 1426.38 2207.77 1439.91 2200.67 1439.74"/><polygon class="cls-63" points="2200.67 1439.74 2200.6 1423.22 2201.22 1390.6 2203.68 1391.33 2200.67 1439.74"/><polygon class="cls-61" points="2108.34 1358.59 2137.36 1411.87 2163.98 1388.92 2138.3 1335.06 2108.34 1358.59"/><path class="cls-62" d="M2140.64,1409l5.52-4.76s-14.4-38.86-13.66-39.82,10.62-14.81,10.62-14.81l-4.82-14.59-26.17,20.55Z"/><polygon class="cls-61" points="2126.09 1422.58 2137.36 1411.87 2169.81 1382.84 2171.71 1388.73 2140.83 1415.38 2130.01 1427.86 2126.09 1422.58"/><polygon class="cls-63" points="2126.09 1422.58 2140.64 1409.04 2169.81 1382.84 2170.58 1385.22 2126.09 1422.58"/><polygon class="cls-61" points="2111.84 1260.82 2111.97 1352.82 2146.92 1351.31 2150.06 1261.87 2111.84 1260.82"/><path class="cls-62" d="M2116.28,1352.63l7.24-.31s6-60.51,7.09-60.94,16.68-7.36,16.68-7.36l2.77-22.15-33.38-.92Z"/><polygon class="cls-61" points="2096.7 1354.64 2111.97 1352.82 2155.08 1349.72 2153.93 1358.61 2113.38 1360.4 2097.65 1364.78 2096.7 1354.64"/><polygon class="cls-63" points="2096.7 1354.64 2116.28 1352.63 2155.08 1349.72 2154.61 1353.31 2096.7 1354.64"/><polygon class="cls-61" points="2116.66 1158.67 2112.47 1255.01 2149.14 1255.17 2156.63 1161.67 2116.66 1158.67"/><path class="cls-62" d="M2117,1255l7.59,0s9.09-63.06,10.29-63.45,17.82-6.89,17.82-6.89l3.93-23-34.91-2.62Z"/><polygon class="cls-61" points="2096.39 1256.17 2112.47 1255.01 2157.76 1253.9 2156.13 1263.16 2113.59 1263.02 2096.91 1266.82 2096.39 1256.17"/><polygon class="cls-63" points="2096.39 1256.17 2117 1255.03 2157.76 1253.9 2157.1 1257.64 2096.39 1256.17"/><polygon class="cls-61" points="2125.41 1051.93 2118.81 1151.82 2155.47 1153.34 2165.31 1056.51 2125.41 1051.93"/><path class="cls-62" d="M2123.33,1152l7.6.31s10.67-65.15,11.88-65.52,18-6.5,18-6.5l4.51-23.79-34.85-4Z"/><polygon class="cls-61" points="2102.7 1152.44 2118.81 1151.82 2164.13 1152.34 2162.27 1161.89 2119.72 1160.18 2102.95 1163.53 2102.7 1152.44"/><polygon class="cls-63" points="2102.7 1152.44 2123.33 1152.01 2164.13 1152.34 2163.38 1156.19 2102.7 1152.44"/><polygon class="cls-61" points="2134.53 941.91 2126.67 1049.73 2167.6 1051.23 2179.05 946.71 2134.53 941.91"/><path class="cls-62" d="M2131.72,1049.91l8.48.31s12.23-70.35,13.58-70.74,20.12-7.08,20.12-7.08l5.15-25.69-38.89-4.19Z"/><polygon class="cls-61" points="2108.69 1050.45 2126.67 1049.73 2177.27 1050.12 2175.14 1060.44 2127.66 1058.75 2108.91 1062.41 2108.69 1050.45"/><polygon class="cls-63" points="2108.69 1050.45 2131.72 1049.91 2177.27 1050.12 2176.41 1054.28 2108.69 1050.45"/><polygon class="cls-61" points="2152.86 783.9 2134.53 941.91 2181.41 940.98 2201.81 833.45 2152.86 783.9"/><path class="cls-62" d="M2144.27,936.53l8.78,1.05s18.42-72,19.86-72.28,21.46-5.62,21.46-5.62l7.44-26.23-48.95-35.19Z"/><polygon class="cls-61" points="2120.31 935.11 2139.05 935.91 2191.54 940.65 2188.49 951.18 2139.33 945.35 2119.57 947.55 2120.31 935.11"/><polygon class="cls-63" points="2120.31 935.11 2144.27 936.53 2191.54 940.65 2190.31 944.9 2120.31 935.11"/><polygon class="cls-64" points="2150.96 729.36 2148.13 759.85 2143.33 811.84 2140.86 838.44 2137.91 870.48 2137.33 876.72 2129.85 957.55 2083.18 1461.81 703.44 1461.81 670.83 957.12 665.67 877.14 665.24 870.51 664.34 856.46 661.71 815.89 658.09 759.85 656.12 729.36 2150.96 729.36"/><polygon class="cls-65" points="666.02 1281.84 2119.98 1273.4 2101.55 1263.37 691.14 1271.55 666.02 1281.84"/><polygon class="cls-66" points="670.59 1454.94 2110 1454.94 2119.98 1273.4 666.02 1281.84 670.59 1454.94"/><rect class="cls-67" x="573.95" y="1461.81" width="1637.45" height="53.87"/><polygon class="cls-68" points="573.95 1461.81 2211.4 1461.81 2117.45 1454.94 670.59 1454.94 573.95 1461.81"/><polygon class="cls-69" points="1981 7.6 884.59 0 918.23 264.87 1946.17 266.24 1981 7.6"/><polygon class="cls-70" points="1931.71 32.83 933.88 27.14 964.45 225.28 1898.74 225.28 1931.71 32.83"/><polygon class="cls-71" points="1925.8 50.17 963.85 46.53 991.43 225.29 964.44 225.29 933.87 27.15 1931.71 32.83 1925.8 50.17"/><polygon class="cls-71" points="918.23 265.3 1946.17 266.24 1947.95 257.42 916.51 255.99 918.23 265.3"/><polygon class="cls-71" points="1981 7.6 1957.57 27.14 1936.21 257.4 1947.95 257.42 1981 7.6"/><polygon class="cls-72" points="964.44 225.29 991.43 225.29 1898.74 225.28 1931.71 32.83 1910.59 50.51 1882.93 207.44 990.02 216.19 964.44 225.29"/><polygon class="cls-73" points="691.14 1271.55 664.34 856.46 724.81 1226.02 819.13 1249.4 820.18 1270.8 691.14 1271.55"/><polygon class="cls-74" points="2140.86 838.44 2081.4 1226.02 1997.31 1263.37 2101.55 1263.37 2140.86 838.44"/><polygon class="cls-74" points="2119.98 1273.4 2076.63 1273.65 2076.63 1315.82 2089.99 1315.82 2088.66 1323.17 2037.88 1323.17 2034.57 1359.48 2079.97 1359.48 2077.28 1367.93 2057.25 1367.93 2055.25 1408.69 2098.01 1408.69 2098.01 1414.71 2016.49 1414.71 2013.82 1454.56 2110 1454.94 2119.98 1273.4"/><polygon class="cls-74" points="829.18 1454.94 756.88 1454.34 756.88 1426.99 797.25 1426.99 797.25 1420.58 773.54 1420.58 773.12 1389.82 794.91 1389.82 793.03 1382.13 745.34 1382.13 745.34 1354.35 794.91 1354.35 794.05 1347.52 773.97 1347.52 777.82 1321.45 822.65 1321.45 829.18 1454.94"/><polygon class="cls-75" points="742.26 1281.84 742.26 1305.04 693.31 1305.04 694.23 1311.34 717.78 1311.34 717.78 1339 684.07 1339 684.07 1343.9 705.08 1343.9 705.08 1369.81 668.43 1372.98 666.02 1281.84 742.26 1281.84"/><polygon class="cls-75" points="673.22 1405.51 733.08 1405.51 733.08 1429.67 678.12 1431.42 673.22 1405.51"/><polygon class="cls-76" points="1375.53 1454.94 829.17 1454.94 797.25 801.58 1375.53 801.58 1375.53 1454.94"/><path class="cls-77" d="M1194.22,827.64h0c-.21-.1-.44-.17-.68-.26-.51-.19-1-.37-1.53-.58s-1-.4-1.52-.61a72.4,72.4,0,0,1-7.09-3.32c-.45-.24-.89-.47-1.33-.73s-.86-.48-1.3-.74l-1.26-.77a47.19,47.19,0,0,1-5.14-3.65c-.38-.3-.75-.61-1.12-.93a9.1,9.1,0,0,1-.68-.61,9.2,9.2,0,0,1-.81-.74,11.89,11.89,0,0,1-1-.93c-.63-.63-1.21-1.26-1.77-1.91a31.74,31.74,0,0,1-2.31-3.05c-.25-.35-.46-.7-.67-1-.44-.7-.84-1.42-1.21-2.16-.19-.37-.37-.75-.54-1.12-.35-.79-.67-1.63-1-2.47,0-.13-.09-.3-.14-.44h-2.42a21,21,0,0,1-.86,2.38,28.09,28.09,0,0,1-2.84,5.21c-.26.39-.54.77-.82,1.14-.39.53-.81,1.05-1.23,1.56s-.79.88-1.21,1.33-1,1-1.49,1.51a54.43,54.43,0,0,1-13.47,9.17c-.65.35-1.33.67-2,1s-1.37.63-2.07.94c-1.91.81-3.88,1.58-5.93,2.3h66.67C1195.06,827.94,1194.64,827.8,1194.22,827.64Zm-166.79-1.7c-2.16-.91-4.26-1.91-6.21-3l-1.89-1-.2-.12c-.59-.37-1.17-.7-1.73-1a52.39,52.39,0,0,1-5.28-3.75c-.37-.3-.74-.61-1.09-.93s-.79-.7-1.19-1.07-.81-.77-1.21-1.19a31.37,31.37,0,0,1-4.35-5.38,6.24,6.24,0,0,1-.54-.86,8.62,8.62,0,0,1-.6-1.07,4.79,4.79,0,0,1-.33-.58c-.21-.39-.39-.79-.56-1.19a8.23,8.23,0,0,1-.37-.79c-.23-.6-.46-1.21-.67-1.81-4.08,11.75-16.48,20.38-32.79,25.9H1033c-.39-.12-.77-.26-1.14-.4Q1029.6,826.84,1027.43,825.94ZM797.25,801.57l1.28,26.09.07,1.33,2,40.75v0l0,.28,18.53,379.35.6,12.15v0l.45,9.22.09,1.93.42,8.19,2,40.54L829.18,1455h546.35V801.57Zm551.61,626.87h-496l-7.13-147.66-.48-10.12L825.67,864.38l-1.75-36.3H1292s0,0,0,0h56.81Z"/><polygon class="cls-78" points="1432.79 764.9 1432.79 1454.94 1983.39 1454.94 2034.57 764.9 1432.79 764.9"/><polygon class="cls-79" points="2034.57 764.9 1848.88 850.87 1848.88 1454.94 1982.99 1454.94 2034.57 764.9"/><polygon class="cls-80" points="1997.31 1263.37 1924.06 1255.29 1924.06 1264.4 1996.62 1272.6 1997.31 1263.37"/><polygon class="cls-81" points="1983.02 1454.56 1996.62 1272.6 1924.06 1264.4 1917.08 1454.56 1983.02 1454.56"/><polygon class="cls-82" points="1432.79 764.9 2034.57 764.9 1848.88 850.87 1432.79 850.87 1432.79 764.9"/><polygon class="cls-83" points="1432.79 1454.94 1619.09 1454.94 1626.51 803.34 1432.79 803.34 1432.79 1454.94"/><polygon class="cls-84" points="1848.88 803.34 1848.88 1454.94 1619.63 1454.94 1626.51 803.34 1848.88 803.34"/><polygon class="cls-85" points="1917.08 1151.55 1917.08 1166.67 1933.28 1166.67 1932.15 1212.32 1917.08 1212.32 1917.08 1223.16 1941.37 1226.02 1941.37 1154.97 1917.08 1151.55"/><polygon class="cls-86" points="1945.65 1156.68 1941.37 1154.97 1941.37 1226.02 1945.08 1220.03 1945.65 1156.68"/><polygon class="cls-87" points="1819.16 803.34 1928.11 750.17 1902.65 1454.94 1819.16 1454.94 1819.16 803.34"/><polygon class="cls-88" points="1941.72 750.17 1928.11 750.17 1902.65 1454.94 1917.08 1454.94 1941.72 750.17"/><polygon class="cls-89" points="852.89 1428.43 871.28 1416.66 1340.13 1419.09 1343.34 843.31 1348.85 828.08 1348.85 1428.43 852.89 1428.43"/><polygon class="cls-90" points="823.92 828.08 852.89 1428.43 871.28 1416.66 849.07 848.1 1343.34 843.31 1348.85 828.08 823.92 828.08"/><path class="cls-60" d="M871.28,1416.67,849.07,848.09l494.27-4.78-2.09,98c-1.27,47.28-149.37,43.32-148.11-3.95-1.24,46.33-143.11,42.54-141.87-3.79-1.4,52.22-125.4,48.9-124-3.32l-39.67,486.43Z"/><polygon class="cls-91" points="893.62 1062.32 1118.76 878.38 1280.62 878.38 894.34 1128.26 893.62 1062.32"/><polygon class="cls-91" points="896.03 1213.8 1315.48 952.54 1315.48 1109.97 894.34 1323.58 896.03 1213.8"/><path class="cls-71" d="M862.27,1186.2c-3.33-85.23,128.75-90.61,134.5-12.78,8.86,97.69,53.77,78.81,68.61,63.41,104.27-108.26,155.06,38.71,131.77,50.73-36.71,18.94,59.23,83.26,68.48,36-18.17-32.59-11.27-94.65,49.85-109.58,10.77-2.24,25.77,5.08,25.77,5.08l-1.12,200-468.85-2.42Z"/><polygon class="cls-92" points="1588.55 848.81 1432.79 848.81 1432.79 1183.32 1568.82 1183.32 1588.55 848.81"/><polygon class="cls-93" points="1839.64 838.85 1904.75 825 1892.72 1183.32 1837.2 1183.32 1839.64 838.85"/><polygon class="cls-60" points="1917.08 1454.94 1938.96 1454.94 1997.64 750.17 1941.27 763.25 1917.08 1454.94"/><polygon class="cls-94" points="1432.79 1205.68 1588.55 1200.65 1607.5 825 1432.79 828.08 1432.79 848.81 1588.55 848.81 1568.82 1183.32 1432.79 1183.32 1432.79 1205.68"/><polygon class="cls-95" points="1559.65 1171.69 1432.79 1171.69 1432.79 1183.32 1568.82 1183.32 1588.55 848.81 1568.82 865.74 1559.65 1171.69"/><polygon class="cls-90" points="1432.79 848.81 1588.55 848.81 1568.82 865.74 1432.79 865.74 1432.79 848.81"/><polygon class="cls-60" points="1432.79 1171.69 1432.79 865.74 1568.82 865.74 1567.65 904.78 1472.91 952.54 1446.34 1171.69 1432.79 1171.69"/><polygon class="cls-91" points="1552.1 1029.42 1441.3 1128.26 1441.3 1151.55 1552.1 1084.82 1552.1 1029.42"/><polygon class="cls-91" points="1552.1 997.94 1441.3 1073.48 1441.3 1095.59 1552.1 1013.05 1552.1 997.94"/><polygon class="cls-96" points="1619.09 1454.94 1626.51 803.34 1649.91 803.34 1634.68 1454.56 1619.09 1454.94"/><polygon class="cls-60" points="1634.68 1454.56 1688.4 1454.56 1747.47 729.36 1649.91 803.34 1634.68 1454.56"/><polygon class="cls-97" points="1609.41 1151.55 1609.41 1166.67 1593.22 1166.67 1594.34 1212.32 1609.41 1212.32 1609.41 1223.16 1585.12 1226.02 1585.12 1154.97 1609.41 1151.55"/><polygon class="cls-98" points="1580.85 1156.68 1585.12 1154.97 1585.12 1226.02 1581.41 1220.03 1580.85 1156.68"/><polygon class="cls-60" points="1432.79 1454.94 1487.12 1454.94 1564.44 783.9 1432.79 803.34 1432.79 1454.94"/><polygon class="cls-60" points="1634.68 1454.56 1649.91 793.55 1819.16 803.34 1819.16 1007.07 1892.72 1454.94 1634.68 1454.56"/><path class="cls-99" d="M1882.92,835.11l-2.65,1.21,20.17-1.1A167.79,167.79,0,0,1,1882.92,835.11Zm21.81-9.26-2.14.16-3.68.23-49,3.35-1,.07-21.44,1.47.12,19.73.07,15.62,1.11,198.92.7,127.32,19.44.77.9,0,55,2.14L1915.85,862l1-28.32.28-8.7Zm-.28,17.73-.77,22.29V866l-11,317.31h-55.53l.77-61.72,3.19-252.4.23-18.34.16-12.4v0h.1l7.24-.4,31.39-1.72,20.17-1.1c1.33,0,2.66-.11,4-.21a1.83,1.83,0,0,1,.33,0Z"/><polygon class="cls-90" points="1837.2 1183.32 1846.23 1183.32 1848.88 848.81 1904.75 843.57 1904.75 835 1841.54 838.44 1837.2 1183.32"/><polygon class="cls-60" points="1846.23 1183.32 1870.97 1183.32 1870.97 902.26 1902.65 887.39 1904.75 843.57 1848.88 848.81 1846.23 1183.32"/><polygon class="cls-91" points="1855.64 1015.34 1898.71 927.27 1898.71 997.94 1855.64 1055.09 1855.64 1015.34"/><polygon class="cls-91" points="1855.64 1090.48 1892.91 1055.09 1892.91 1072.78 1855.64 1090.48"/><polygon class="cls-60" points="1375.53 1454.56 1375.53 825 1403.54 803.34 1392.67 1454.56 1375.53 1454.56"/><polygon class="cls-100" points="829.18 1454.94 838.37 1454.79 800.58 869.75 829.18 1454.94"/><polygon class="cls-60" points="1983.02 1454.56 2013.82 1454.56 2057.45 1462.74 2057.45 1483.92 2130.82 1494.78 2130.82 1515.69 2046.49 1548 1983.02 1454.56"/><rect class="cls-66" x="1397.06" y="1462.74" width="611.87" height="64.08"/><polygon class="cls-65" points="1397.06 1462.74 2008.93 1462.74 1973.83 1454.56 1433.18 1454.56 1397.06 1462.74"/><polygon class="cls-66" points="2046.49 1504.73 2046.49 1548 1359.5 1548 1359.5 1503.72 2046.49 1504.73"/><polygon class="cls-65" points="1359.5 1504.73 2046.49 1504.73 2007.08 1483.92 1400.05 1483.92 1359.5 1504.73"/><path class="cls-101" d="M2046.49,1504.73V1548h-687v-22.13s402.67,26,607.17-21.14Z"/><path class="cls-101" d="M2008.93,1462.74v22.09l-1.86-.91H1400s211.43-3.58,388.66-21.18Z"/><g class="cls-102"><path class="cls-103" d="M871.46,729.36v85.85a41.6,41.6,0,0,1-2,12.84c-18.74,58.56-165.68,57.15-178.43-4.13-2.93,14-12.88,24.79-26.72,32.54l-2.63-40.57c-15.86,13.71-46.33,20.19-76,19.45l-5.38-75.49-2.17-30.49Z"/><path class="cls-103" d="M2133.83,729.36v85.85c0,74.32-179.17,74.32-179.17,0,0,74.32-179.75,74.32-179.75,0,0,74.32-179.75,74.32-179.75,0,0,74.32-179.76,74.32-179.76,0,0,74.32-181.3,74.32-181.3,0,0,70.32-160.88,74.09-178.22,11.35C1038,889.3,872,885.53,872,815.21V729.36Z"/><path class="cls-103" d="M2151,729.36l-2.83,30.49-7.27,78.59a41.13,41.13,0,0,1-7-23.23V729.36Z"/></g><path class="cls-104" d="M841.92,265C784.17,346.28,734,445.37,690.19,569.24q-7.41,21-14.59,42.87H511.47c57.31-141.57,123.81-254.46,204.44-347.22Q778.91,265,841.92,265Z"/><path class="cls-105" d="M967.7,265A1077.71,1077.71,0,0,0,914,378.61c-26.08,64.05-50.05,137.8-71.87,223.52-.8,3.14-1.6,6.29-2.4,9.47l-.24,1-167.8-1c7-21.55,14.73-45.45,22.11-65.61,42.14-115.06,93.48-204.08,148.1-281.1q60.84.06,121.71.09Z"/><path class="cls-104" d="M999,611.59H835.49c36.69-146.42,79.48-258.47,128.32-347l125.65.1C1055.2,351.75,1024.76,463.4,999,611.59Z"/><path class="cls-105" d="M1215,264.76c-.29,1.2-.57,2.41-.85,3.64-9.41,40.37-18.29,86.22-26.56,138.86-9.23,58.85-17.67,126.16-25.18,203.76l-.06.58H999c8.88-51.24,18.34-98.11,28.33-141.1,13.88-59.76,28.77-112,44.58-158.15q8.58-25,17.52-47.69Z"/><path class="cls-104" d="M1340.27,264.85q-.94,12-1.86,24.78-.6,8.49-1.19,17.3c-.29,4.25-.56,8.57-.84,12.95-.3,4.66-.58,9.4-.87,14.2q-.27,4.67-.56,9.39c-.08,1.58-.17,3.16-.26,4.76q-.26,4.26-.49,8.62-.18,3.36-.36,6.77-.22,4-.43,8t-.41,8.14q-.33,6.54-.65,13.25c-.06,1.13-.12,2.25-.16,3.38q-.35,7.39-.69,14.95t-.67,15.33c0,1.25-.1,2.49-.16,3.74-.12,3.21-.26,6.45-.39,9.7q-.72,18.11-1.38,37.25c-.12,3.19-.23,6.41-.34,9.64q-.21,6.47-.42,13.06c-.07,2-.13,4.08-.19,6.13,0,.16,0,.33,0,.51-.12,3.94-.25,7.91-.36,11.91q-.1,3.35-.2,6.71-.16,5.8-.33,11.68-1,35.6-1.77,74.56v0h-163l.06-.58c7.51-77.6,16-144.91,25.18-203.76,8.27-52.64,17.15-98.49,26.56-138.86.28-1.23.56-2.44.85-3.64h12.68Q1283.94,264.8,1340.27,264.85Z"/><path class="cls-105" d="M1488,611.6h-162.7v0q.8-39,1.77-74.56.17-5.88.33-11.68.09-3.36.2-6.71c.11-4,.24-8,.36-11.91,0-.18,0-.35,0-.51.06-2,.12-4.1.19-6.13q.21-6.58.42-13.06c.11-3.23.22-6.45.34-9.64q.64-19.15,1.38-37.25c.13-3.25.27-6.49.39-9.7.06-1.25.11-2.49.16-3.74q.33-7.77.67-15.33t.69-14.95c0-1.13.1-2.25.16-3.38q.3-6.7.65-13.25.21-4.09.41-8.14c.14-2.69.29-5.36.43-8q.18-3.4.36-6.77.24-4.37.49-8.62c.09-1.6.18-3.18.26-4.76q.29-4.73.56-9.39c.29-4.8.57-9.54.87-14.2q.42-6.57.84-12.95.58-8.82,1.19-17.3.91-12.74,1.86-24.78,62.57,0,125.13.09c1.6,20.32,3.22,42.07,4.9,65.43,2.14,29.95,4.35,62.55,6.66,98.15q2.31,35.89,4.75,76C1483.73,537.86,1485.82,573.47,1488,611.6Z"/><path class="cls-104" d="M1650.38,611.6H1488c-2.15-38.13-4.24-73.74-6.26-107.06q-2.43-40.17-4.75-76c-2.31-35.6-4.52-68.2-6.66-98.15-1.68-23.36-3.3-45.11-4.9-65.43l125,.09q4.36,18.64,8.72,38.87c4.33,20.13,8.66,41.49,13,64.22,4.43,23.35,8.84,48.13,13.24,74.49C1633.69,492.89,1642.06,548.91,1650.38,611.6Z"/><path class="cls-105" d="M1812.51,611.6H1650.38c-8.32-62.69-16.69-118.71-25.09-169-4.4-26.36-8.81-51.14-13.24-74.49-4.29-22.73-8.62-44.09-13-64.22q-4.35-20.25-8.72-38.87,62.4.06,124.81.09,3.32,8.49,6.6,17.29,7,18.69,13.9,38.84c8.24,24.09,16.38,49.79,24.42,77.28C1778.06,460,1795.52,530.32,1812.51,611.6Z"/><path class="cls-104" d="M1974.35,611.6H1812.51c-17-81.28-34.45-151.65-52.4-213.07-8-27.49-16.18-53.19-24.42-77.28q-6.9-20.16-13.9-38.84-3.27-8.81-6.6-17.29l124.63.11q5.29,9.69,10.51,19.75c12.91,24.83,25.53,51.4,37.9,79.91C1918.42,434.55,1947,515.77,1974.35,611.6Z"/><path class="cls-105" d="M2135.91,611.6H1974.35c-27.31-95.83-55.93-177-86.12-246.71-12.37-28.51-25-55.08-37.9-79.91q-5.22-10.07-10.51-19.75l84.53,0h0l39.92,0q24.15,34.4,46.91,73.1C2056.11,414.8,2097.3,504.53,2135.91,611.6Z"/><path class="cls-104" d="M2297.19,611.6H2135.91c-38.61-107.07-79.8-196.8-124.71-273.18q-22.79-38.76-46.91-73.1,62.14,0,124.3.09,21.64,25.29,42.14,52.54h0C2192.52,400.1,2247,496.42,2297.19,611.6Z"/><path class="cls-106" d="M672.88,611.3V793.55a26.64,26.64,0,0,1-.83,6.63c-1.53,6-5.16,11.25-10.34,15.71-8.25,7.13-20.46,12.31-34.45,15.52a168.87,168.87,0,0,1-41.55,3.93c-18.6-.45-36.87-3.74-51.07-9.88-16.14-7-27-17.6-27-31.91l3.82-181.44Z"/><path class="cls-107" d="M834.82,609.94V792.19c0,53.5-150.35,55.71-162.77,6.63a26.24,26.24,0,0,1-.82-6.63V609.94Z"/><path class="cls-106" d="M1002.63,611.3V793.55a26.07,26.07,0,0,1-1.43,8.62c-16.29,47-165.87,44.14-165.87-8.62V611.3Z"/><path class="cls-107" d="M1162,611.3V793.55c0,20.2-21.25,33.08-48.36,38.65a169.33,169.33,0,0,1-51.08,2.23c-29.27-3.13-55.18-13.88-61.34-32.26a26.85,26.85,0,0,1-1.39-8.62V611.3Z"/><path class="cls-106" d="M1325.56,611.3V793.55c0,10.31-5.58,18.71-14.68,25.21-26.14,18.67-81.33,21.63-116.68,8.87-19-6.83-32.22-18.19-32.22-34.08V611.3Z"/><path class="cls-107" d="M1487.73,611.3V793.55a27,27,0,0,1-.87,6.86c-10.54,40.52-114.61,45.85-149.77,16-7.22-6.13-11.53-13.75-11.53-22.85V611.3Z"/><path class="cls-106" d="M1649.9,611.3V793.55c0,53.49-149,55.71-161.35,6.65a26.8,26.8,0,0,1-.82-6.65V611.3Z"/><path class="cls-107" d="M1812.07,611.3V793.55c0,55.8-162.17,55.8-162.17,0V611.3Z"/><path class="cls-106" d="M1973.74,611.3V793.55c0,55.8-161.67,55.8-161.67,0V611.3Z"/><path class="cls-107" d="M2137.58,611.3V793.55a26.33,26.33,0,0,1-.58,5.6c-10.57,50.13-163.25,48.27-163.25-5.6V611.3Z"/><path class="cls-106" d="M2297.19,611.3V793.55c0,53.87-149.82,55.73-160.19,5.6a27,27,0,0,1-.57-5.6V611.3Z"/><path class="cls-91" d="M1839.82,265.23s-45.75,5.53-118,17.18c-35.31,5.68-77,12.82-122.69,21.49-40.28,7.62-83.72,16.44-128.8,26.47-44.39,9.88-90.36,20.94-136.46,33.25-49.22,13.12-98.58,27.65-146.3,43.64-56.71,19-111.1,40.05-160.17,63.24-80.44,38-146.59,81.75-185.27,131.63q-3.36,4.3-6.4,8.65c-.12.18-.25.35-.37.52l-.89,1.27-162.78-1c7-21.55,14.59-43.15,22-63.31,28.44-43.69,91.41-103.89,215.1-167,1.73-.88,3.48-1.78,5.24-2.66,44.15-22.22,96.33-44.56,158-66.26,42.68-15,89.9-29.77,142.15-44,4.47-1.21,9-2.43,13.53-3.63q56.31,0,112.64.08,62.57,0,125.13.09l125,.09q62.4.06,124.81.09Z"/><path class="cls-91" d="M2130.73,318c-.94.13-47.81,6.57-119.53,20.47-35.7,6.93-77.56,15.7-123,26.47-40.49,9.6-83.81,20.77-128.12,33.64-44.56,13-90.13,27.61-134.82,44.08-49.8,18.34-98.53,38.93-143.58,61.93-60.92,31.1-115.1,66.56-156.15,106.76l-.29.28,0,0H1161.91c0-.2.07-.3.07-.3l.38-.28c5.26-3.84,65.36-47.36,165.57-104.3,42.76-24.3,92.82-51.05,149-78.2,41.78-20.19,87-40.6,135.09-60.4,39.34-16.18,80.63-31.95,123.64-46.87,37-12.82,75.27-25,114.64-36.27q36.39-10.41,74-19.7h0l39.92,0q62.14,0,124.3.09Q2110.23,290.7,2130.73,318Z"/><path class="cls-74" d="M672.88,770.82c52.85,1.8,107,3.09,161.94,3.71v19c0,53.5-150.35,55.71-162.77,6.63-1.53,6-5.16,11.25-10.34,15.71-15.86,13.71-46.33,20.19-76,19.45-39.73-1-78.06-14.91-78.06-41.79V763.49c52.61,2.87,107.35,5.36,163.58,7.28Z"/><path class="cls-74" d="M1967.74,611.3h6V793.55c0,55.8-161.67,55.8-161.67,0,0,55.8-162.17,55.8-162.17,0,0,55.8-162.17,55.8-162.17,0,0,55.8-162.17,55.8-162.17,0,0,55.8-163.58,55.8-163.58,0,0,52.76-145,55.64-160.78,8.62-16.29,47-165.87,44.14-165.87-8.62v-19c54.26.6,109.25.57,164.48-.28l2.82,0c53.07-.84,106.35-2.42,159.35-4.89,55-2.54,109.68-6,163.58-10.65,55.07-4.7,109.31-10.54,162.17-17.71,55.81-7.54,110.08-16.55,162.17-27.22,56.94-11.66,111.28-25.27,162.17-41.13C1868.58,655,1920.86,634.71,1967.74,611.3Z"/><path class="cls-74" d="M2297.19,611.3V793.55c0,53.87-149.82,55.73-160.19,5.6-10.57,50.13-163.25,48.27-163.25-5.6V611.3Z"/><g class="cls-102"><path class="cls-108" d="M534.64,825.46q46.46,3.48,92.62,5.95a168.87,168.87,0,0,1-41.55,3.93C567.11,834.89,548.84,831.6,534.64,825.46Z"/><path class="cls-108" d="M1062.54,834.43q25.62-1,51.08-2.23A169.33,169.33,0,0,1,1062.54,834.43Z"/><path class="cls-108" d="M1194.2,827.63q58.85-3.79,116.68-8.87C1284.74,837.43,1229.55,840.39,1194.2,827.63Z"/><path class="cls-108" d="M1337.09,816.4q75.84-7,149.77-16C1476.32,840.93,1372.25,846.26,1337.09,816.4Z"/><path class="cls-108" d="M1812.07,751.24q82.64-14.94,161.67-31.6v73.91c0,55.8-161.67,55.8-161.67,0,0,55.8-162.17,55.8-162.17,0,0,53.49-149,55.71-161.35,6.65q82-9.93,161.35-22Q1732.51,765.71,1812.07,751.24Z"/><path class="cls-108" d="M2297.19,642.25v151.3c0,53.87-149.82,55.73-160.19,5.6-10.57,50.13-163.25,48.27-163.25-5.6V719.63q83.53-17.55,162.68-36.56l1.15-.28Q2220,663.05,2297.19,642.25Z"/></g><polygon class="cls-109" points="510.81 643.21 2297.19 637.02 2297.19 611.3 2283.08 580.08 521.05 588.91 511.47 612.11 510.81 643.21"/><g class="cls-102"><path class="cls-110" d="M524.83,595.85c0-1.74,20.37-3.15,45.51-3.15s45.51,1.41,45.51,3.15S595.47,599,570.34,599,524.83,597.59,524.83,595.85Z"/></g><path class="cls-111" d="M510.32,532.81s-5.28,0-6.6,3.16-1.48-4.44,4.54-8S510.32,532.81,510.32,532.81Z"/><path class="cls-112" d="M510.32,532.81s-7.92-13.65,3.95-12.6,21.11,3.15,18.47,10.5,0,10.51,10.55,13.66,21.11,2.1,29,17.86,3.95,18.91,15.82,21,18.47,0,18.47,0,4,8.41-11.87,10.51-19.79,0-25.06,0,0-6.31-5.28-9.46-44.85-4.2-50.13-15.76c-4.08-8.94-2.64-15.75,2.64-20s9.24-7.35,5.28-9.45Z"/><path class="cls-113" d="M516.91,548.57c-5.28,4.21-6.71,11-2.64,20,5.28,11.56,44.85,12.61,50.13,15.76s0,9.46,5.28,9.46,9.23,2.1,25.06,0a22.54,22.54,0,0,0,8.83-2.7,34.82,34.82,0,0,1-3.55.63c-15.83,2-19.79,0-25.07,0s0-6.13-5.27-9.18-44.85-4.09-50.13-15.31c-4.08-8.68-4-17.69,1.32-21.77s10.55-4.76,6.59-6.8-16.33-5.57-17.1-5.79c.6.33,8,4.27,11.83,6.29C526.15,541.22,522.19,544.37,516.91,548.57Z"/><path class="cls-114" d="M536.52,541.78s7.88-2.37,18.65.49c4,1.05,16.06,6.63,19.78,20,2.64,9.46,2.09,15.4,5.66,18.21s4.9,2.8,7.53,2.8-2.63,2.1-14.51-1-13.71-7.35-18.46-7.35c-6.6,0-9.24-1.05-15.83-6.31s-11.51-6.76-14.51-11.55C522.19,552.78,532.39,541.3,536.52,541.78Z"/><path class="cls-115" d="M536.52,541.78s7.88-2.37,18.65.49c4,1.05,16.06,6.63,19.78,20,2.64,9.46,2.09,15.4,5.66,18.21s4.9,2.8,7.53,2.8-2.63,2.1-14.51-1-13.71-7.35-18.46-7.35c-6.6,0-9.24-1.05-15.83-6.31s-11.51-6.76-14.51-11.55C522.19,552.78,532.39,541.3,536.52,541.78Z"/><path class="cls-116" d="M563.08,571.69c0,1,7.92,12.6,18.47,13.65s12.54-1,1.65-3.13-9.57-2.12-12.2-4.22Z"/><path class="cls-117" d="M575.37,594.26s-7-5.77-5.69-7.87.37,8.11,10.73,8.26S575.37,594.26,575.37,594.26Z"/><path class="cls-118" d="M576.27,588.49s8.79,6.36,13.63,5.81S585.51,598,576.27,588.49Z"/><path class="cls-119" d="M606,587.44s-7.32,1-11.28,0S598.82,590.6,606,587.44Z"/><path class="cls-120" d="M604.49,590.39s-8.43,3.36-13.71-.85S593.14,596.49,604.49,590.39Z"/><path class="cls-121" d="M594.74,593.75s-11.87-2.1-10.55-5.26S576.27,592.7,594.74,593.75Z"/><path class="cls-122" d="M515.59,527.56c0,1.16.59,2.1,1.32,2.1s2.64-.94,2.64-2.1-.59-2.1-1.32-2.1S515.59,526.4,515.59,527.56Z"/><path class="cls-123" d="M518.36,526.77a.79.79,0,0,0,.79.79c.44,0,1.59-.35,1.59-.79A.79.79,0,0,0,520,526C519.51,526,518.36,526.34,518.36,526.77Z"/><path class="cls-124" d="M536.7,594.8c1.32,1.05,0,2.1,2.64,1.05s5.27-3.15,5.27-2.1,4,0,2.64,1-1.32,2.1,0,2.1,2.64,0,2.64-1,0-3.15,1.32-2.1,2.64,2.1,2.64,1,0-1-1.22-2l-.1-.08a10.91,10.91,0,0,1-1.35-1.2h0a1.42,1.42,0,0,1-.49-1.19,1.36,1.36,0,0,1,.53-.77,2.67,2.67,0,0,0,.3-.26c.75-.76-.22-.87-.29-1.73a.37.37,0,0,1,0-.11,1.53,1.53,0,0,0-.38-.91c-.25-.32-.4-.57.38-1.19a2,2,0,0,0,.38-2.31,5,5,0,0,0-.38-.84l-.09-.14-.66-1.09-3.66-.68a6.66,6.66,0,0,1,.45,2.63v.33a3.93,3.93,0,0,0,.07.73c.26,1.39,1.25,1.51,1.25,2.42v2.1a2.56,2.56,0,0,1-.1.63c-.08.33-.2.7-.31,1a3.94,3.94,0,0,0-.17.86c0,.38.12.64.58.64.79,0,1.11.37.95.67s-.42.38-.95.38c-1.32,0-5.28-1.05-7.91,0S535.38,593.75,536.7,594.8Z"/><path class="cls-125" d="M550.83,586.53a4.64,4.64,0,0,1-2.26.37V588a6.06,6.06,0,0,0,2.65-.41.37.37,0,0,1,0-.11A1.53,1.53,0,0,0,550.83,586.53Z"/><path class="cls-125" d="M547.25,582.91v.33a3.93,3.93,0,0,0,.07.73,28.72,28.72,0,0,0,4.27-.94,5,5,0,0,0-.38-.84l-.09-.14A33.72,33.72,0,0,1,547.25,582.91Z"/><path class="cls-125" d="M551.21,589.54a2.67,2.67,0,0,0,.3-.26c-.79,0-1.63-.06-2.52-.12l-.52,0c-.08.33-.2.7-.31,1l.73.06c.59,0,1.2.08,1.79.1A1.36,1.36,0,0,1,551.21,589.54Z"/><path class="cls-125" d="M548,591c0,.38.12.64.58.64.79,0,1.11.37.95.67l3.11.46-.1-.08a10.91,10.91,0,0,1-1.35-1.2h0Z"/><path class="cls-126" d="M542,596.77c1.31,1.11,0,2.23,2.63,1.11s5.28-3.35,5.28-2.23,4,0,2.64,1.12-1.32,2.23,0,2.23,2.64,0,2.64-1.12,0-3.35,1.32-2.23,2.63,2.23,2.63,1.12,0-1.12-1.21-2.15l-.11-.09a10.32,10.32,0,0,1-1.34-1.27h0A1.56,1.56,0,0,1,556,592a1.43,1.43,0,0,1,.53-.82l.3-.28c.75-.81-.23-.93-.29-1.84a.41.41,0,0,1,0-.11,1.61,1.61,0,0,0-.39-1c-.25-.34-.39-.61.39-1.27a2.2,2.2,0,0,0,.38-2.45,5.27,5.27,0,0,0-.38-.9l-.1-.14-.66-1.16-3.65-.73a7.38,7.38,0,0,1,.45,2.79v.36a4.38,4.38,0,0,0,.06.77c.27,1.49,1.26,1.61,1.26,2.58v2.23a2.4,2.4,0,0,1-.11.67c-.08.35-.2.74-.3,1.1a4.37,4.37,0,0,0-.17.9c0,.42.12.69.58.69.79,0,1.11.4.95.71s-.42.4-.95.4c-1.32,0-5.28-1.11-7.92,0S540.66,595.65,542,596.77Z"/><path class="cls-125" d="M556.1,588a4.51,4.51,0,0,1-2.25.39v1.12a5.74,5.74,0,0,0,2.65-.43.41.41,0,0,1,0-.11A1.61,1.61,0,0,0,556.1,588Z"/><path class="cls-125" d="M552.53,584.12v.36a4.38,4.38,0,0,0,.06.77,28.41,28.41,0,0,0,4.28-1,5.27,5.27,0,0,0-.38-.9l-.1-.14A31.82,31.82,0,0,1,552.53,584.12Z"/><path class="cls-125" d="M556.49,591.18l.3-.28c-.79,0-1.64-.07-2.52-.13l-.53,0c-.08.35-.2.74-.3,1.1l.72,0,1.8.12A1.43,1.43,0,0,1,556.49,591.18Z"/><path class="cls-125" d="M553.27,592.73c0,.42.12.69.58.69.79,0,1.11.4.95.71l3.11.49-.11-.09a10.32,10.32,0,0,1-1.34-1.27h0Z"/><text class="cls-127" transform="translate(1234.1 157.96)">KRALI<tspan class="cls-128" x="331.49" y="0">K</tspan></text></g></g></g></svg>