<svg width="400" height="250" viewBox="0 0 400 250" fill="none" xmlns="http://www.w3.org/2000/svg">
<rect width="400" height="250" fill="white"/>
<path d="M128 85.958H182.311V82.5594H128V85.958Z" fill="#F3F8FF"/>
<path d="M226.175 131.174H240.786C241.182 131.174 241.503 130.851 241.503 130.453V130.265C241.503 129.867 241.182 129.544 240.786 129.544H226.175C225.78 129.544 225.459 129.867 225.459 130.265V130.453C225.459 130.851 225.78 131.174 226.175 131.174Z" fill="#F3F8FF"/>
<path d="M226.175 146.613H240.786C241.182 146.613 241.503 146.29 241.503 145.892V145.704C241.503 145.306 241.182 144.983 240.786 144.983H226.175C225.78 144.983 225.459 145.306 225.459 145.704V145.892C225.459 146.29 225.78 146.613 226.175 146.613Z" fill="#F3F8FF"/>
<path d="M250.099 114.631C252.018 114.114 253.156 112.129 252.642 110.198C252.128 108.267 250.155 107.121 248.237 107.639C246.318 108.156 245.179 110.141 245.694 112.072C246.208 114.003 248.18 115.149 250.099 114.631Z" fill="#F3F8FF"/>
<path d="M245.215 112.879C246.613 111.471 246.613 109.189 245.215 107.781C243.816 106.373 241.548 106.373 240.149 107.781C238.751 109.189 238.751 111.471 240.149 112.879C241.548 114.286 243.816 114.286 245.215 112.879Z" fill="#F3F8FF"/>
<path d="M225.365 115.596C227.343 115.596 228.947 113.982 228.947 111.991C228.947 110.001 227.343 108.387 225.365 108.387C223.387 108.387 221.784 110.001 221.784 111.991C221.784 113.982 223.387 115.596 225.365 115.596Z" fill="#F3F8FF"/>
<path d="M235.174 117.214C237.126 116.894 238.452 115.042 238.134 113.078C237.816 111.113 235.976 109.779 234.024 110.099C232.072 110.418 230.746 112.27 231.064 114.235C231.382 116.2 233.222 117.534 235.174 117.214Z" fill="#F3F8FF"/>
<path d="M258.716 111.664C258.716 111.664 258.138 119.957 235.91 119.957C213.682 119.957 213.104 111.664 213.104 111.664H258.716Z" fill="#DDDDDD"/>
<path d="M144.858 126.638H157.347C157.754 126.637 158.144 126.474 158.432 126.184C158.721 125.895 158.884 125.503 158.886 125.093V125.093C158.885 124.683 158.722 124.289 158.434 123.999C158.145 123.709 157.755 123.545 157.347 123.544H144.858C144.451 123.546 144.061 123.71 143.774 124C143.486 124.291 143.324 124.683 143.323 125.093V125.093C143.324 125.502 143.486 125.895 143.774 126.184C144.061 126.474 144.451 126.637 144.858 126.638V126.638Z" fill="#F3F8FF"/>
<path d="M144.858 141.714H157.347C157.755 141.713 158.145 141.549 158.434 141.259C158.722 140.969 158.885 140.575 158.886 140.165C158.884 139.755 158.721 139.363 158.432 139.074C158.144 138.784 157.754 138.621 157.347 138.62H144.858C144.451 138.621 144.061 138.784 143.774 139.074C143.486 139.363 143.324 139.756 143.323 140.165V140.165C143.324 140.575 143.486 140.967 143.774 141.258C144.061 141.548 144.451 141.712 144.858 141.714V141.714Z" fill="#F3F8FF"/>
<path d="M238.673 43.8631H142.611V138.526H238.673V43.8631Z" fill="#0F264C"/>
<path d="M236.208 46.89H145.085V138.526H236.208V46.89Z" fill="white"/>
<path d="M238.673 137.187V138.526H190.262L200.726 128.004L215.132 113.496L238.673 137.187Z" fill="#0F264C"/>
<path d="M142.611 138.526V129.427L172.376 99.4717L211.182 138.526H142.611Z" fill="#0F264C"/>
<path d="M206.483 89.0476C214.607 89.0476 221.192 82.4199 221.192 74.2443C221.192 66.0687 214.607 59.441 206.483 59.441C198.36 59.441 191.774 66.0687 191.774 74.2443C191.774 82.4199 198.36 89.0476 206.483 89.0476Z" fill="#0F264C"/>
<path d="M171.099 42L161.953 136.214L257.559 145.615L266.705 51.4005L171.099 42Z" fill="#5E503F"/>
<path d="M173.269 45.2507L164.415 136.453L255.107 145.37L263.96 54.168L173.269 45.2507Z" fill="white"/>
<path d="M257.684 144.28L257.555 145.605L209.375 140.872L220.805 131.42L236.546 118.394L257.684 144.28Z" fill="#5E503F"/>
<path d="M161.952 136.211L162.828 127.157L195.347 100.255L230.193 142.919L161.952 136.211Z" fill="#5E503F"/>
<path d="M245.202 84.4286C248.464 76.9408 245.076 68.2099 237.636 64.9276C230.196 61.6454 221.521 65.0547 218.259 72.5425C214.998 80.0303 218.386 88.7612 225.826 92.0435C233.266 95.3257 241.941 91.9164 245.202 84.4286Z" fill="#5E503F"/>
<path d="M224.071 54.5001L128.213 60.8063L134.349 155.268L230.206 148.962L224.071 54.5001Z" fill="#DDDDDD"/>
<path d="M221.802 57.6852L130.873 63.6672L136.812 155.108L227.741 149.126L221.802 57.6852Z" fill="white"/>
<path d="M230.108 147.638L230.193 148.973L181.888 152.147L191.645 140.962L205.082 125.541L230.108 147.638Z" fill="#DDDDDD"/>
<path d="M134.336 155.273L133.748 146.192L161.511 114.351L202.759 150.777L134.336 155.273Z" fill="#DDDDDD"/>
<path d="M204.313 97.4106C210.057 91.6295 210.057 82.2566 204.313 76.4756C198.569 70.6945 189.256 70.6945 183.512 76.4756C177.767 82.2566 177.767 91.6295 183.512 97.4106C189.256 103.192 198.569 103.192 204.313 97.4106Z" fill="#DDDDDD"/>
<path d="M262.494 102.131L259.379 103.175L262.204 106.224C262.204 106.224 264.665 104.742 264.033 103.34L262.494 102.131Z" fill="#FFC3BD"/>
<path d="M257.23 105.978L259.677 108.351L262.196 106.22L259.37 103.17L257.23 105.978Z" fill="#FFC3BD"/>
<path d="M267.615 77.2444C267.931 77.831 268.193 78.3504 268.451 78.9146C268.709 79.4788 268.963 80.0206 269.207 80.5803C269.684 81.6997 270.128 82.8191 270.542 84.0057C270.947 85.1811 271.292 86.3767 271.574 87.5879L271.784 88.5103L271.953 89.4461C272.015 89.7596 272.05 90.082 272.095 90.3999L272.157 90.8835V90.9999V91.2014C272.167 91.3505 272.167 91.5 272.157 91.6491C272.124 92.5042 271.927 93.3447 271.579 94.1253C271.311 94.7513 271.002 95.3587 270.653 95.9433C270.005 97.012 269.287 98.0366 268.505 99.0105C266.998 100.894 265.349 102.656 263.57 104.281L261.755 102.642C263.05 100.761 264.336 98.8179 265.492 96.8925C266.059 95.9561 266.578 94.9906 267.045 93.9999C267.255 93.5545 267.435 93.0953 267.584 92.6253C267.693 92.3226 267.747 92.0025 267.744 91.6805C267.744 91.6805 267.744 91.7029 267.744 91.6805V91.582L267.659 91.1969C267.606 90.9372 267.557 90.682 267.481 90.4223L267.277 89.6431L267.05 88.8595C266.725 87.8162 266.364 86.7729 265.96 85.7251C265.555 84.6774 265.128 83.652 264.678 82.6266C264.229 81.6012 263.735 80.5534 263.281 79.6086L267.615 77.2444Z" fill="#FFC3BD"/>
<path d="M272.718 85.0759L266.663 88.2954L265.203 89.0745C265.203 89.0745 264.861 88.067 264.376 86.6028C263.984 85.4341 263.486 83.9788 263.014 82.5057C262.863 82.0579 262.712 81.5788 262.569 81.1221C262.525 80.9922 262.48 80.8668 262.44 80.737C261.132 76.7071 264.763 74.8936 267.232 75.413C271.459 76.3041 272.718 85.0759 272.718 85.0759Z" fill="#DDDDDD"/>
<path d="M266.663 88.2953L265.203 89.0745C265.203 89.0745 264.861 88.067 264.376 86.6028C263.984 85.4341 263.486 83.9788 263.014 82.5057C262.863 82.0579 262.712 81.5788 262.569 81.1221L265.906 80.4638C265.906 80.4638 266.36 85.7878 266.663 88.2953Z" fill="#5E503F"/>
<path d="M262.409 66.1844C261.715 68.5129 260.821 72.8204 262.316 74.5667C262.316 74.5667 261.426 76.913 257.048 76.4742C252.225 75.9906 254.983 73.8368 254.983 73.8368C257.675 73.4652 257.804 71.495 257.524 69.6009L262.409 66.1844Z" fill="#FFC3BD"/>
<path d="M254.045 74.6562C254.267 74.2085 253.947 72.6144 253.947 72.6144C253.947 72.6144 260.83 71.6831 263.29 72.5652C264.625 73.0398 263.45 75.4354 263.45 75.4354L254.045 74.6562Z" fill="#14365B"/>
<path d="M254.187 62.6605C254.16 62.9202 254 63.1083 253.831 63.1083C253.662 63.1083 253.546 62.8665 253.569 62.6023C253.591 62.3381 253.756 62.1545 253.925 62.1545C254.094 62.1545 254.214 62.3963 254.187 62.6605Z" fill="#0F264C"/>
<path d="M254.178 62.7903C253.79 63.5596 253.297 64.2709 252.714 64.9038C252.879 65.0497 253.074 65.1577 253.284 65.2203C253.495 65.2829 253.716 65.2987 253.933 65.2665L254.178 62.7903Z" fill="#ED847E"/>
<path d="M255.184 61.7963C255.157 61.7963 255.13 61.7893 255.107 61.7759C255.084 61.7626 255.064 61.7434 255.05 61.7202C254.955 61.5525 254.821 61.4099 254.66 61.304C254.499 61.1982 254.316 61.1321 254.125 61.1112C254.084 61.1089 254.045 61.0909 254.017 61.061C253.989 61.031 253.973 60.9913 253.974 60.95C253.973 60.9292 253.976 60.9085 253.984 60.8893C253.992 60.8701 254.004 60.8528 254.02 60.8388C254.035 60.8247 254.053 60.8142 254.073 60.8079C254.092 60.8015 254.113 60.7996 254.134 60.8023C254.376 60.8236 254.61 60.9035 254.815 61.0353C255.021 61.167 255.191 61.3467 255.313 61.559C255.334 61.5941 255.341 61.6363 255.332 61.6766C255.323 61.7168 255.298 61.7518 255.264 61.7739C255.239 61.7875 255.212 61.7951 255.184 61.7963Z" fill="#0F264C"/>
<path d="M240.172 166.713L236.942 166.472L236.64 158.873L239.87 159.115L240.172 166.713Z" fill="#FFC3BD"/>
<path d="M260.839 169.61H257.595L255.068 162.057H258.311L260.839 169.61Z" fill="#FFC3BD"/>
<path d="M257.164 169.234H261.106C261.17 169.234 261.233 169.256 261.283 169.297C261.333 169.338 261.368 169.395 261.381 169.458L262.022 172.36C262.037 172.43 262.036 172.503 262.018 172.573C262.001 172.643 261.968 172.709 261.923 172.764C261.877 172.82 261.819 172.864 261.754 172.894C261.689 172.924 261.618 172.939 261.546 172.937C260.278 172.915 259.348 172.843 257.746 172.843C256.763 172.843 254.73 172.946 253.368 172.946C252.007 172.946 251.833 171.603 252.39 171.469C254.886 170.918 255.829 170.161 256.625 169.436C256.774 169.304 256.966 169.232 257.164 169.234Z" fill="#14365B"/>
<path d="M236.786 165.742L240.319 166.006C240.383 166.012 240.443 166.04 240.49 166.084C240.537 166.129 240.567 166.188 240.577 166.252L241 169.189C241.011 169.261 241.006 169.333 240.985 169.402C240.964 169.471 240.927 169.534 240.878 169.587C240.83 169.64 240.769 169.68 240.703 169.706C240.636 169.732 240.564 169.742 240.493 169.736C239.22 169.615 237.378 169.404 235.785 169.288C233.912 169.149 232.671 169.082 230.473 168.916C229.138 168.818 228.88 167.439 229.441 167.358C232.012 166.991 233.703 167.134 235.99 165.943C236.232 165.804 236.508 165.734 236.786 165.742Z" fill="#14365B"/>
<path d="M236.64 158.873L236.795 162.791L240.03 163.033L239.874 159.119L236.64 158.873Z" fill="#F29994"/>
<path d="M258.311 162.057H255.068L256.372 165.952H259.615L258.311 162.057Z" fill="#F29994"/>
<path d="M265.025 103.864L247.758 102.57C247.195 98.1945 246.997 93.779 247.166 89.37C247.237 87.7849 247.362 86.3252 247.513 84.9908C248.314 78.0101 250.005 74.4638 250.005 74.4638C251.667 74.1548 253.351 73.9766 255.041 73.9309C257.5 73.9718 259.954 74.1557 262.391 74.4817C264.158 74.7078 265.908 75.0549 267.628 75.5205C264.135 87.9148 265.341 101.2 265.025 103.864Z" fill="#DDDDDD"/>
<path d="M249.253 86.3296L247.166 89.3699C247.238 87.7848 247.362 86.3251 247.513 84.9908L249.253 86.3296Z" fill="#5E503F"/>
<path d="M247.927 76.716C247.633 77.222 247.282 77.7996 246.957 78.3459C246.632 78.8922 246.277 79.4474 245.925 79.9892C245.227 81.0773 244.501 82.143 243.749 83.1728C242.997 84.2027 242.214 85.1968 241.391 86.1236C240.684 86.9308 239.913 87.6795 239.087 88.3625C238.401 88.5221 237.703 88.6239 237 88.667C236.107 88.7116 235.212 88.6576 234.331 88.5058C233.417 88.354 232.522 88.1048 231.661 87.7625C231.222 87.5936 230.791 87.4023 230.371 87.1893C230.162 87.0819 229.957 86.9655 229.757 86.849C229.557 86.7326 229.334 86.5938 229.196 86.5132L227.501 88.2685C227.741 88.5461 227.924 88.7162 228.142 88.9491C228.36 89.1819 228.587 89.3476 228.796 89.5312C229.241 89.9081 229.709 90.2566 230.197 90.5745C231.192 91.2156 232.262 91.73 233.383 92.1059C234.527 92.487 235.713 92.7232 236.915 92.8089C238.127 92.8846 239.343 92.814 240.537 92.5984L240.906 92.5312L241.329 92.2536C242.574 91.4173 243.728 90.4524 244.773 89.3745C245.78 88.3568 246.725 87.2787 247.602 86.146C248.492 85.0356 249.284 83.8848 250.054 82.7161C250.436 82.1191 250.807 81.5221 251.166 80.925C251.535 80.3161 251.869 79.734 252.225 79.0623L247.927 76.716Z" fill="#FFC3BD"/>
<path d="M253.796 78.2161C253.564 81.3236 249.907 87.3819 249.907 87.3819L241.627 83.0027C241.627 83.0027 244.43 78.4668 247.496 75.7668C250.561 73.0667 254.049 74.7996 253.796 78.2161Z" fill="#DDDDDD"/>
<path d="M230.669 87.5789L228.248 85.4475L226.402 88.6625C226.402 88.6625 228.124 90.6058 230.148 89.3834L230.669 87.5789Z" fill="#FFC3BD"/>
<path d="M224.88 84.0505L223.595 86.9923L226.384 88.6625L228.248 85.4654L224.88 84.0505Z" fill="#FFC3BD"/>
<path d="M263.045 62.6381C262.529 65.8352 262.391 67.7293 260.616 69.2203C257.947 71.4592 254.143 69.592 253.698 66.3054C253.297 63.3501 254.205 58.6171 257.457 57.65C258.174 57.4336 258.934 57.4052 259.665 57.5675C260.395 57.7297 261.073 58.0771 261.632 58.5768C262.192 59.0766 262.616 59.7119 262.863 60.4227C263.111 61.1335 263.173 61.8961 263.045 62.6381V62.6381Z" fill="#FFC3BD"/>
<path d="M266.64 60.9545C269.016 62.6292 263.361 68.7726 261.35 68.7054C259.339 68.6383 255.566 63.0277 256.803 60.0411C255.767 59.6202 255.433 59.4814 255.024 58.4157C254.258 56.4858 255.179 53.2663 259.878 54.1708C258.712 54.9678 259.522 55.5992 261.733 55.2902C260.865 56.3335 262.302 57.1037 264.451 56.6559C264.073 58.5724 268.865 58.8455 266.64 60.9545Z" fill="#0F264C"/>
<path d="M258.574 63.6277C258.424 64.4273 257.967 65.1351 257.302 65.5979C256.412 66.2024 255.629 65.4859 255.593 64.4605C255.562 63.5426 255.985 62.1187 257.012 61.9262C257.238 61.888 257.469 61.9069 257.685 61.9812C257.901 62.0555 258.096 62.1829 258.251 62.3517C258.406 62.5206 258.516 62.7257 258.573 62.9485C258.629 63.1713 258.63 63.4047 258.574 63.6277V63.6277Z" fill="#FFC3BD"/>
<path d="M260.785 165.2H254.846C254.846 165.2 249.062 145.176 247.607 134.81C247.295 132.571 247.478 129.616 247.945 126.41C248.741 120.924 250.352 114.696 251.691 110.048C252.883 105.915 253.867 103.027 253.867 103.027L265.03 103.864C264.425 112.018 256.407 125.407 256.963 136.471C257.475 146.685 260.785 165.2 260.785 165.2Z" fill="#14365B"/>
<path d="M254.645 112.403C254.583 117.83 250.792 123.826 247.945 126.41C248.741 120.924 250.352 114.696 251.691 110.048C252.523 109.878 253.951 111.467 254.645 112.403Z" fill="#0A1B35"/>
<path d="M247.758 102.57C247.758 102.57 233.752 123.893 233.369 133.842C232.973 144.19 235.661 161.949 235.661 161.949L241.138 162.361C241.138 162.361 241.774 145.471 242.766 135.351C243.847 124.323 259.673 112.032 260.296 103.511L247.758 102.57Z" fill="#14365B"/>
<path d="M253.796 165.33H261.559V163.225L252.883 163.091L253.796 165.33Z" fill="#5E503F"/>
<path d="M234.54 161.98L242.143 162.567L242.303 160.445L233.792 159.679L234.54 161.98Z" fill="#5E503F"/>
<path d="M256.091 169.807C255.87 169.824 255.651 169.764 255.468 169.637C255.409 169.589 255.364 169.526 255.335 169.455C255.307 169.383 255.298 169.306 255.308 169.23C255.309 169.185 255.321 169.141 255.344 169.103C255.366 169.064 255.399 169.032 255.437 169.01C255.802 168.831 256.843 169.458 256.963 169.548C256.975 169.556 256.985 169.568 256.99 169.581C256.996 169.595 256.997 169.609 256.995 169.624C256.993 169.639 256.986 169.653 256.976 169.665C256.966 169.676 256.952 169.684 256.937 169.686C256.661 169.761 256.377 169.801 256.091 169.807ZM255.611 169.131C255.577 169.124 255.542 169.124 255.509 169.131C255.493 169.14 255.48 169.153 255.472 169.169C255.463 169.185 255.459 169.203 255.46 169.221C255.453 169.273 255.46 169.326 255.478 169.375C255.497 169.424 255.527 169.468 255.566 169.503C255.928 169.668 256.338 169.689 256.714 169.561C256.377 169.349 256.002 169.203 255.611 169.131V169.131Z" fill="#5E503F"/>
<path d="M256.919 169.691H256.883C256.55 169.507 255.9 168.795 255.967 168.428C255.978 168.371 256.009 168.32 256.053 168.283C256.098 168.247 256.154 168.227 256.211 168.227C256.27 168.218 256.33 168.223 256.387 168.24C256.444 168.257 256.496 168.286 256.541 168.325C256.914 168.634 256.986 169.575 256.986 169.615C256.986 169.629 256.984 169.643 256.977 169.655C256.971 169.668 256.962 169.679 256.95 169.686C256.94 169.69 256.929 169.692 256.919 169.691V169.691ZM256.265 168.348H256.234C256.131 168.348 256.122 168.406 256.118 168.424C256.078 168.639 256.492 169.18 256.825 169.436C256.801 169.065 256.668 168.71 256.443 168.415C256.392 168.376 256.328 168.359 256.265 168.366V168.348Z" fill="#5E503F"/>
<path d="M235.679 166.221C235.308 166.261 234.935 166.165 234.629 165.952C234.581 165.901 234.545 165.84 234.525 165.773C234.505 165.706 234.501 165.636 234.513 165.567C234.518 165.525 234.533 165.484 234.558 165.45C234.583 165.415 234.617 165.388 234.655 165.37C235.065 165.182 236.315 165.939 236.457 166.028C236.47 166.037 236.481 166.049 236.487 166.063C236.493 166.077 236.495 166.093 236.493 166.109C236.489 166.125 236.481 166.139 236.469 166.151C236.457 166.162 236.442 166.169 236.426 166.171C236.178 166.203 235.929 166.22 235.679 166.221V166.221ZM234.824 165.491C234.789 165.49 234.754 165.498 234.722 165.513C234.706 165.519 234.692 165.529 234.682 165.543C234.672 165.556 234.666 165.572 234.664 165.589C234.655 165.635 234.658 165.682 234.671 165.726C234.684 165.771 234.708 165.811 234.74 165.845C234.927 166.037 235.456 166.109 236.177 166.042C235.765 165.773 235.306 165.586 234.824 165.491V165.491Z" fill="#5E503F"/>
<path d="M236.417 166.171H236.377C236.003 165.966 235.283 165.204 235.367 164.828C235.389 164.743 235.456 164.64 235.67 164.631C235.823 164.632 235.971 164.691 236.083 164.797C236.352 165.173 236.495 165.624 236.493 166.086C236.493 166.1 236.49 166.113 236.483 166.124C236.477 166.136 236.468 166.146 236.457 166.154L236.417 166.171ZM235.687 164.792C235.545 164.792 235.536 164.851 235.532 164.868C235.478 165.083 235.977 165.679 236.341 165.948C236.334 165.574 236.211 165.213 235.99 164.913C235.951 164.873 235.903 164.842 235.851 164.821C235.799 164.8 235.743 164.79 235.687 164.792V164.792Z" fill="#5E503F"/>
<path d="M127.148 203.946V192.31H131.511C132.405 192.31 133.155 192.465 133.761 192.776C134.371 193.086 134.831 193.522 135.142 194.083C135.456 194.639 135.614 195.289 135.614 196.031C135.614 196.778 135.455 197.425 135.136 197.975C134.822 198.52 134.358 198.942 133.744 199.242C133.131 199.537 132.377 199.685 131.483 199.685H128.375V197.935H131.199C131.722 197.935 132.15 197.863 132.483 197.719C132.816 197.571 133.063 197.357 133.222 197.077C133.384 196.793 133.466 196.444 133.466 196.031C133.466 195.619 133.384 195.266 133.222 194.975C133.059 194.679 132.811 194.456 132.477 194.304C132.144 194.149 131.714 194.071 131.188 194.071H129.256V203.946H127.148ZM133.159 198.674L136.04 203.946H133.688L130.858 198.674H133.159ZM141.202 204.117C140.327 204.117 139.571 203.935 138.935 203.571C138.302 203.204 137.815 202.685 137.474 202.014C137.134 201.34 136.963 200.547 136.963 199.634C136.963 198.736 137.134 197.948 137.474 197.27C137.819 196.588 138.3 196.058 138.918 195.679C139.535 195.297 140.26 195.105 141.094 195.105C141.632 195.105 142.139 195.192 142.616 195.367C143.098 195.537 143.522 195.802 143.889 196.162C144.26 196.522 144.552 196.98 144.764 197.537C144.976 198.09 145.082 198.749 145.082 199.514V200.145H137.929V198.759H143.111C143.107 198.365 143.022 198.014 142.855 197.708C142.688 197.397 142.455 197.153 142.156 196.975C141.861 196.797 141.516 196.708 141.122 196.708C140.702 196.708 140.332 196.81 140.014 197.014C139.696 197.215 139.448 197.48 139.27 197.81C139.096 198.136 139.007 198.494 139.003 198.884V200.094C139.003 200.602 139.096 201.037 139.281 201.401C139.467 201.761 139.726 202.037 140.06 202.23C140.393 202.42 140.783 202.514 141.23 202.514C141.529 202.514 141.8 202.473 142.043 202.389C142.285 202.302 142.495 202.175 142.673 202.009C142.851 201.842 142.986 201.636 143.077 201.389L144.997 201.605C144.876 202.113 144.645 202.556 144.304 202.935C143.967 203.31 143.535 203.602 143.009 203.81C142.482 204.014 141.88 204.117 141.202 204.117ZM153.72 197.526L151.845 197.73C151.792 197.541 151.699 197.363 151.567 197.196C151.438 197.03 151.264 196.895 151.044 196.793C150.824 196.691 150.555 196.639 150.237 196.639C149.809 196.639 149.449 196.732 149.158 196.918C148.87 197.103 148.728 197.344 148.732 197.639C148.728 197.893 148.821 198.1 149.01 198.259C149.203 198.418 149.521 198.549 149.964 198.651L151.453 198.969C152.279 199.147 152.893 199.429 153.294 199.816C153.699 200.202 153.904 200.708 153.908 201.333C153.904 201.882 153.743 202.367 153.425 202.787C153.11 203.204 152.673 203.53 152.112 203.764C151.552 203.999 150.908 204.117 150.18 204.117C149.112 204.117 148.252 203.893 147.601 203.446C146.949 202.995 146.561 202.369 146.436 201.566L148.442 201.372C148.533 201.766 148.726 202.064 149.021 202.264C149.317 202.465 149.701 202.566 150.175 202.566C150.663 202.566 151.055 202.465 151.351 202.264C151.65 202.064 151.8 201.816 151.8 201.52C151.8 201.27 151.703 201.064 151.51 200.901C151.321 200.738 151.025 200.613 150.624 200.526L149.135 200.213C148.298 200.039 147.679 199.745 147.277 199.333C146.875 198.916 146.677 198.389 146.68 197.753C146.677 197.215 146.822 196.749 147.118 196.355C147.417 195.958 147.832 195.651 148.362 195.435C148.896 195.215 149.512 195.105 150.209 195.105C151.232 195.105 152.036 195.323 152.624 195.759C153.214 196.194 153.58 196.783 153.72 197.526ZM155.604 203.946V195.219H157.661V203.946H155.604ZM156.638 193.98C156.312 193.98 156.032 193.872 155.797 193.656C155.562 193.437 155.445 193.174 155.445 192.867C155.445 192.556 155.562 192.293 155.797 192.077C156.032 191.857 156.312 191.747 156.638 191.747C156.967 191.747 157.248 191.857 157.479 192.077C157.714 192.293 157.831 192.556 157.831 192.867C157.831 193.174 157.714 193.437 157.479 193.656C157.248 193.872 156.967 193.98 156.638 193.98ZM159.776 203.946V195.219H161.741V196.702H161.844C162.026 196.202 162.327 195.812 162.747 195.531C163.168 195.247 163.67 195.105 164.253 195.105C164.844 195.105 165.342 195.249 165.747 195.537C166.156 195.821 166.444 196.21 166.611 196.702H166.702C166.895 196.217 167.221 195.831 167.679 195.543C168.141 195.251 168.688 195.105 169.321 195.105C170.124 195.105 170.779 195.359 171.287 195.867C171.795 196.374 172.048 197.115 172.048 198.088V203.946H169.986V198.406C169.986 197.865 169.842 197.469 169.554 197.219C169.266 196.965 168.914 196.838 168.497 196.838C168.001 196.838 167.613 196.994 167.332 197.304C167.056 197.611 166.918 198.011 166.918 198.503V203.946H164.901V198.321C164.901 197.87 164.764 197.511 164.491 197.242C164.223 196.973 163.87 196.838 163.435 196.838C163.139 196.838 162.87 196.914 162.628 197.066C162.385 197.213 162.192 197.424 162.048 197.696C161.904 197.965 161.832 198.28 161.832 198.639V203.946H159.776ZM178.195 203.946V192.31H182.649C183.49 192.31 184.189 192.442 184.746 192.708C185.306 192.969 185.725 193.327 186.001 193.781C186.282 194.236 186.422 194.751 186.422 195.327C186.422 195.8 186.331 196.206 186.149 196.543C185.967 196.876 185.723 197.147 185.416 197.355C185.109 197.564 184.767 197.713 184.388 197.804V197.918C184.801 197.941 185.196 198.067 185.575 198.299C185.958 198.526 186.27 198.848 186.513 199.264C186.755 199.681 186.876 200.185 186.876 200.776C186.876 201.378 186.731 201.92 186.439 202.401C186.147 202.878 185.708 203.255 185.121 203.531C184.534 203.808 183.795 203.946 182.905 203.946H178.195ZM180.303 202.185H182.57C183.335 202.185 183.886 202.039 184.223 201.747C184.564 201.452 184.734 201.073 184.734 200.611C184.734 200.266 184.649 199.956 184.479 199.679C184.308 199.399 184.066 199.179 183.751 199.02C183.437 198.857 183.062 198.776 182.626 198.776H180.303V202.185ZM180.303 197.259H182.388C182.751 197.259 183.079 197.192 183.371 197.06C183.662 196.924 183.892 196.732 184.058 196.486C184.229 196.236 184.314 195.941 184.314 195.6C184.314 195.149 184.155 194.778 183.837 194.486C183.522 194.194 183.054 194.049 182.433 194.049H180.303V197.259ZM194.182 200.276V195.219H196.239V203.946H194.244V202.395H194.153C193.956 202.884 193.633 203.283 193.182 203.594C192.735 203.905 192.184 204.06 191.528 204.06C190.956 204.06 190.451 203.933 190.011 203.679C189.576 203.422 189.235 203.049 188.989 202.56C188.742 202.067 188.619 201.473 188.619 200.776V195.219H190.676V200.458C190.676 201.011 190.828 201.45 191.131 201.776C191.434 202.102 191.831 202.264 192.324 202.264C192.627 202.264 192.92 202.191 193.205 202.043C193.489 201.895 193.722 201.675 193.903 201.384C194.089 201.088 194.182 200.719 194.182 200.276ZM200.411 192.31V203.946H198.354V192.31H200.411ZM208.088 200.276V195.219H210.145V203.946H208.151V202.395H208.06C207.863 202.884 207.539 203.283 207.088 203.594C206.641 203.905 206.09 204.06 205.435 204.06C204.863 204.06 204.357 203.933 203.918 203.679C203.482 203.422 203.141 203.049 202.895 202.56C202.649 202.067 202.526 201.473 202.526 200.776V195.219H204.582V200.458C204.582 201.011 204.734 201.45 205.037 201.776C205.34 202.102 205.738 202.264 206.23 202.264C206.533 202.264 206.827 202.191 207.111 202.043C207.395 201.895 207.628 201.675 207.81 201.384C207.995 201.088 208.088 200.719 208.088 200.276ZM214.317 198.833V203.946H212.26V195.219H214.226V196.702H214.328C214.529 196.213 214.849 195.825 215.288 195.537C215.732 195.249 216.279 195.105 216.93 195.105C217.533 195.105 218.057 195.234 218.504 195.492C218.955 195.749 219.304 196.122 219.55 196.611C219.8 197.1 219.923 197.692 219.919 198.389V203.946H217.862V198.708C217.862 198.124 217.711 197.668 217.408 197.338C217.108 197.009 216.694 196.844 216.163 196.844C215.804 196.844 215.483 196.924 215.203 197.083C214.927 197.238 214.709 197.463 214.55 197.759C214.394 198.054 214.317 198.412 214.317 198.833ZM224.521 204.122C223.968 204.122 223.47 204.024 223.027 203.827C222.588 203.626 222.239 203.331 221.982 202.941C221.728 202.55 221.601 202.069 221.601 201.497C221.601 201.005 221.692 200.598 221.874 200.276C222.055 199.954 222.304 199.696 222.618 199.503C222.932 199.31 223.286 199.164 223.68 199.066C224.078 198.963 224.489 198.889 224.913 198.844C225.425 198.791 225.839 198.744 226.158 198.702C226.476 198.656 226.707 198.588 226.851 198.497C226.999 198.403 227.072 198.257 227.072 198.06V198.026C227.072 197.598 226.946 197.266 226.692 197.031C226.438 196.797 226.072 196.679 225.595 196.679C225.091 196.679 224.692 196.789 224.396 197.009C224.105 197.228 223.908 197.488 223.805 197.787L221.885 197.514C222.036 196.984 222.286 196.541 222.635 196.185C222.983 195.825 223.41 195.556 223.913 195.378C224.417 195.196 224.974 195.105 225.584 195.105C226.004 195.105 226.423 195.155 226.839 195.253C227.256 195.352 227.637 195.514 227.982 195.742C228.326 195.965 228.603 196.27 228.811 196.656C229.023 197.043 229.129 197.526 229.129 198.105V203.946H227.152V202.747H227.084C226.959 202.99 226.783 203.217 226.555 203.429C226.332 203.638 226.05 203.806 225.709 203.935C225.372 204.06 224.976 204.122 224.521 204.122ZM225.055 202.611C225.468 202.611 225.826 202.53 226.129 202.367C226.432 202.2 226.665 201.98 226.828 201.708C226.995 201.435 227.078 201.138 227.078 200.816V199.787C227.014 199.84 226.904 199.889 226.749 199.935C226.597 199.98 226.427 200.02 226.237 200.054C226.048 200.088 225.86 200.119 225.675 200.145C225.489 200.172 225.328 200.194 225.192 200.213C224.885 200.255 224.61 200.323 224.368 200.418C224.125 200.513 223.934 200.645 223.794 200.816C223.654 200.982 223.584 201.198 223.584 201.463C223.584 201.842 223.722 202.128 223.999 202.321C224.275 202.514 224.627 202.611 225.055 202.611ZM231.197 203.946V195.219H233.163V196.702H233.266C233.447 196.202 233.749 195.812 234.169 195.531C234.589 195.247 235.091 195.105 235.675 195.105C236.266 195.105 236.764 195.249 237.169 195.537C237.578 195.821 237.866 196.21 238.033 196.702H238.124C238.317 196.217 238.643 195.831 239.101 195.543C239.563 195.251 240.11 195.105 240.743 195.105C241.546 195.105 242.201 195.359 242.709 195.867C243.216 196.374 243.47 197.115 243.47 198.088V203.946H241.408V198.406C241.408 197.865 241.264 197.469 240.976 197.219C240.688 196.965 240.336 196.838 239.919 196.838C239.423 196.838 239.035 196.994 238.754 197.304C238.478 197.611 238.339 198.011 238.339 198.503V203.946H236.322V198.321C236.322 197.87 236.186 197.511 235.913 197.242C235.644 196.973 235.292 196.838 234.857 196.838C234.561 196.838 234.292 196.914 234.05 197.066C233.807 197.213 233.614 197.424 233.47 197.696C233.326 197.965 233.254 198.28 233.254 198.639V203.946H231.197ZM248.068 204.122C247.515 204.122 247.017 204.024 246.574 203.827C246.134 203.626 245.786 203.331 245.528 202.941C245.275 202.55 245.148 202.069 245.148 201.497C245.148 201.005 245.239 200.598 245.42 200.276C245.602 199.954 245.85 199.696 246.165 199.503C246.479 199.31 246.833 199.164 247.227 199.066C247.625 198.963 248.036 198.889 248.46 198.844C248.972 198.791 249.386 198.744 249.705 198.702C250.023 198.656 250.254 198.588 250.398 198.497C250.545 198.403 250.619 198.257 250.619 198.06V198.026C250.619 197.598 250.492 197.266 250.239 197.031C249.985 196.797 249.619 196.679 249.142 196.679C248.638 196.679 248.239 196.789 247.943 197.009C247.652 197.228 247.455 197.488 247.352 197.787L245.432 197.514C245.583 196.984 245.833 196.541 246.182 196.185C246.53 195.825 246.956 195.556 247.46 195.378C247.964 195.196 248.521 195.105 249.131 195.105C249.551 195.105 249.97 195.155 250.386 195.253C250.803 195.352 251.184 195.514 251.528 195.742C251.873 195.965 252.15 196.27 252.358 196.656C252.57 197.043 252.676 197.526 252.676 198.105V203.946H250.699V202.747H250.631C250.506 202.99 250.33 203.217 250.102 203.429C249.879 203.638 249.597 203.806 249.256 203.935C248.919 204.06 248.523 204.122 248.068 204.122ZM248.602 202.611C249.015 202.611 249.373 202.53 249.676 202.367C249.979 202.2 250.212 201.98 250.375 201.708C250.542 201.435 250.625 201.138 250.625 200.816V199.787C250.561 199.84 250.451 199.889 250.295 199.935C250.144 199.98 249.973 200.02 249.784 200.054C249.595 200.088 249.407 200.119 249.222 200.145C249.036 200.172 248.875 200.194 248.739 200.213C248.432 200.255 248.157 200.323 247.915 200.418C247.672 200.513 247.481 200.645 247.341 200.816C247.201 200.982 247.131 201.198 247.131 201.463C247.131 201.842 247.269 202.128 247.545 202.321C247.822 202.514 248.174 202.611 248.602 202.611ZM257.983 204.1C257.297 204.1 256.684 203.924 256.142 203.571C255.6 203.219 255.172 202.708 254.858 202.037C254.544 201.367 254.386 200.552 254.386 199.594C254.386 198.624 254.545 197.806 254.864 197.139C255.186 196.469 255.619 195.963 256.165 195.622C256.71 195.278 257.318 195.105 257.989 195.105C258.5 195.105 258.92 195.192 259.25 195.367C259.58 195.537 259.841 195.744 260.034 195.986C260.227 196.225 260.377 196.45 260.483 196.662H260.568V192.31H262.631V203.946H260.608V202.571H260.483C260.377 202.783 260.223 203.009 260.023 203.247C259.822 203.482 259.557 203.683 259.227 203.85C258.898 204.016 258.483 204.1 257.983 204.1ZM258.557 202.412C258.992 202.412 259.364 202.295 259.67 202.06C259.977 201.821 260.21 201.49 260.369 201.066C260.528 200.641 260.608 200.147 260.608 199.583C260.608 199.018 260.528 198.528 260.369 198.111C260.214 197.694 259.983 197.37 259.676 197.139C259.373 196.908 259 196.793 258.557 196.793C258.098 196.793 257.716 196.912 257.409 197.151C257.102 197.389 256.871 197.719 256.716 198.139C256.561 198.56 256.483 199.041 256.483 199.583C256.483 200.128 256.561 200.615 256.716 201.043C256.875 201.467 257.108 201.802 257.415 202.049C257.725 202.291 258.106 202.412 258.557 202.412ZM264.822 203.946V195.219H266.879V203.946H264.822ZM271.511 192.31L271.324 200.526H269.494L269.312 192.31H271.511ZM270.409 204.071C270.064 204.071 269.769 203.95 269.523 203.708C269.28 203.465 269.159 203.17 269.159 202.821C269.159 202.48 269.28 202.189 269.523 201.946C269.769 201.704 270.064 201.583 270.409 201.583C270.746 201.583 271.038 201.704 271.284 201.946C271.534 202.189 271.659 202.48 271.659 202.821C271.659 203.052 271.6 203.263 271.483 203.452C271.369 203.641 271.218 203.793 271.028 203.906C270.843 204.016 270.636 204.071 270.409 204.071Z" fill="#5E503F"/>
</svg>
